<svg width="22" height="25" viewBox="0 0 22 25" fill="none" xmlns="http://www.w3.org/2000/svg">
<path d="M7.14286 5.95238C7.14286 3.97994 8.74179 2.38095 10.7143 2.38095C12.6868 2.38095 14.2857 3.97994 14.2857 5.95238H7.14286ZM4.7619 5.95238H1.19048C0.533 5.95238 0 6.48538 0 7.14286V23.8095C0 24.467 0.533 25 1.19048 25H20.2381C20.8956 25 21.4286 24.467 21.4286 23.8095V7.14286C21.4286 6.48538 20.8956 5.95238 20.2381 5.95238H16.6667C16.6667 2.66498 14.0017 0 10.7143 0C7.42688 0 4.7619 2.66498 4.7619 5.95238ZM7.14286 10.7143C7.14286 12.6868 8.74179 14.2857 10.7143 14.2857C12.6868 14.2857 14.2857 12.6868 14.2857 10.7143H16.6667C16.6667 14.0017 14.0017 16.6667 10.7143 16.6667C7.42688 16.6667 4.7619 14.0017 4.7619 10.7143H7.14286Z" fill="white"/>
</svg>
