<svg viewBox="0 0 25 25" fill="currentColor" xmlns="http://www.w3.org/2000/svg">
  <path
    d="M12.5001 25C5.59646 25 0 19.4036 0 12.5C0 5.59645 5.59646 0 12.5001 0C19.4036 0 25.0001 5.59645 25.0001 12.5C25.0001 19.4036 19.4036 25 12.5001 25ZM8.12502 15V17.5H11.2501V20H13.7501V17.5H15.0001C16.7259 17.5 18.1251 16.101 18.1251 14.375C18.1251 12.6491 16.7259 11.25 15.0001 11.25H10C9.65485 11.25 9.37502 10.9702 9.37502 10.625C9.37502 10.2798 9.65485 9.99996 10 9.99996H16.8751V7.50002H13.7501V5.00001H11.2501V7.50002H10C8.27413 7.50002 6.87502 8.89912 6.87502 10.625C6.87502 12.351 8.27413 13.75 10 13.75H15.0001C15.3452 13.75 15.6251 14.0298 15.6251 14.375C15.6251 14.7202 15.3452 15 15.0001 15H8.12502Z"
    fill="currentColor" />
</svg>