<svg width="990" height="339" viewBox="0 0 990 339" fill="none" xmlns="http://www.w3.org/2000/svg">
<foreignObject x="0.000963211" y="-0.000164986" width="989.822" height="382.164"><div xmlns="http://www.w3.org/1999/xhtml" style="backdrop-filter:blur(38.19px);clip-path:url(#bgblur_0_24_47738_clip_path);height:100%;width:100%"></div></foreignObject><g opacity="0.5" filter="url(#filter0_ddddi_24_47738)" data-figma-bg-blur-radius="76.371">
<mask id="path-1-inside-1_24_47738" fill="white">
<path d="M225.066 76.3154H184.321V237.562H225.066V76.3154Z"/>
<path d="M332.471 200.016L373.216 76.3154H416.582L356.921 237.562H307.445L248.072 76.3154H291.727L332.471 200.016Z"/>
<path d="M583.788 169.157H465.908C466.878 180.798 470.955 189.922 478.127 196.516C485.299 203.111 494.134 206.414 504.609 206.414C519.749 206.414 530.513 199.923 536.911 186.908H580.867C576.212 202.441 567.285 215.191 554.085 225.181C540.884 235.171 524.692 240.172 505.475 240.172C489.953 240.172 476.025 236.73 463.702 229.835C451.38 222.952 441.771 213.193 434.888 200.582C427.993 187.97 424.551 173.419 424.551 156.927C424.551 140.435 427.947 125.594 434.738 112.971C441.528 100.36 451.033 90.6588 463.264 83.868C475.494 77.0773 489.549 73.6819 505.463 73.6819C521.378 73.6819 534.521 76.9849 546.647 83.5793C558.773 90.1738 568.186 99.54 574.884 111.666C581.583 123.793 584.92 137.721 584.92 153.439C584.92 159.26 584.528 164.503 583.754 169.157H583.788ZM542.743 141.798C542.547 131.323 538.759 122.927 531.391 116.621C524.011 110.315 514.991 107.162 504.32 107.162C494.226 107.162 485.738 110.223 478.855 116.332C471.96 122.442 467.745 130.93 466.197 141.798H542.743Z"/>
<path d="M863.201 81.8448C872.417 76.9019 882.938 74.4189 894.776 74.4189C908.554 74.4189 921.015 77.8142 932.183 84.605C943.339 91.3958 952.163 101.051 958.665 113.558C965.167 126.077 968.412 140.583 968.412 157.075C968.412 173.567 965.155 188.176 958.665 200.88C952.163 213.595 943.339 223.435 932.183 230.422C921.027 237.409 908.554 240.897 894.776 240.897C882.938 240.897 872.51 238.472 863.49 233.621C854.47 228.771 847.137 222.661 841.512 215.281V307.939H800.768V77.052H841.512V100.335C846.756 92.9665 853.974 86.7993 863.201 81.8564V81.8448ZM920.83 131.91C916.846 124.83 911.614 119.448 905.112 115.753C898.61 112.068 891.577 110.221 884.012 110.221C876.448 110.221 869.703 112.115 863.201 115.891C856.699 119.668 851.456 125.153 847.483 132.337C843.499 139.52 841.512 147.963 841.512 157.664C841.512 167.365 843.499 175.807 847.483 182.991C851.456 190.174 856.699 195.648 863.201 199.436C869.703 203.213 876.633 205.107 884.012 205.107C891.392 205.107 898.61 203.167 905.112 199.286C911.614 195.406 916.846 189.874 920.83 182.69C924.803 175.518 926.801 166.972 926.801 157.075C926.801 147.177 924.803 138.977 920.83 131.898V131.91Z"/>
<path d="M614.404 79.0064H656.685V169.423C656.685 188.56 672.115 203.989 691.251 203.989C710.388 203.989 725.817 188.56 725.817 169.423V79.0064H768.098V169.423C768.098 208.308 739.711 240.091 691.263 240.091C642.815 240.091 614.428 208.308 614.428 169.423V79.0064H614.404Z"/>
<path d="M690.316 299.891C659.087 299.891 628.575 290.999 602.07 274.184L620.318 243.325C641.325 256.652 665.532 263.709 690.304 263.709C715.077 263.709 739.826 256.502 760.995 242.886L779.427 273.629C752.715 290.814 721.89 299.903 690.304 299.903L690.316 299.891Z"/>
<path d="M95.233 66.6718C95.233 56.9014 97.0577 49.8566 100.499 46.2879C104.726 41.9109 113.134 40.9985 119.451 40.9985H154.41V3.56836H117.407C97.4735 3.56836 82.0903 8.90397 71.6847 19.4366C61.3137 29.9346 56.0474 45.5257 56.0474 65.8056V76.2575H21.4121V113.988H56.0474V237.562H95.5217V113.988H151.118V76.2575H95.233V66.6718Z"/>
<path d="M225.066 3.56836H184.321V41.0101H225.066V3.56836Z"/>
</mask>
<path d="M225.066 76.3154H184.321V237.562H225.066V76.3154Z" fill="url(#paint0_radial_24_47738)" fill-opacity="0.1" shape-rendering="crispEdges"/>
<path d="M332.471 200.016L373.216 76.3154H416.582L356.921 237.562H307.445L248.072 76.3154H291.727L332.471 200.016Z" fill="url(#paint1_radial_24_47738)" fill-opacity="0.1" shape-rendering="crispEdges"/>
<path d="M583.788 169.157H465.908C466.878 180.798 470.955 189.922 478.127 196.516C485.299 203.111 494.134 206.414 504.609 206.414C519.749 206.414 530.513 199.923 536.911 186.908H580.867C576.212 202.441 567.285 215.191 554.085 225.181C540.884 235.171 524.692 240.172 505.475 240.172C489.953 240.172 476.025 236.73 463.702 229.835C451.38 222.952 441.771 213.193 434.888 200.582C427.993 187.97 424.551 173.419 424.551 156.927C424.551 140.435 427.947 125.594 434.738 112.971C441.528 100.36 451.033 90.6588 463.264 83.868C475.494 77.0773 489.549 73.6819 505.463 73.6819C521.378 73.6819 534.521 76.9849 546.647 83.5793C558.773 90.1738 568.186 99.54 574.884 111.666C581.583 123.793 584.92 137.721 584.92 153.439C584.92 159.26 584.528 164.503 583.754 169.157H583.788ZM542.743 141.798C542.547 131.323 538.759 122.927 531.391 116.621C524.011 110.315 514.991 107.162 504.32 107.162C494.226 107.162 485.738 110.223 478.855 116.332C471.96 122.442 467.745 130.93 466.197 141.798H542.743Z" fill="url(#paint2_radial_24_47738)" fill-opacity="0.1" shape-rendering="crispEdges"/>
<path d="M863.201 81.8448C872.417 76.9019 882.938 74.4189 894.776 74.4189C908.554 74.4189 921.015 77.8142 932.183 84.605C943.339 91.3958 952.163 101.051 958.665 113.558C965.167 126.077 968.412 140.583 968.412 157.075C968.412 173.567 965.155 188.176 958.665 200.88C952.163 213.595 943.339 223.435 932.183 230.422C921.027 237.409 908.554 240.897 894.776 240.897C882.938 240.897 872.51 238.472 863.49 233.621C854.47 228.771 847.137 222.661 841.512 215.281V307.939H800.768V77.052H841.512V100.335C846.756 92.9665 853.974 86.7993 863.201 81.8564V81.8448ZM920.83 131.91C916.846 124.83 911.614 119.448 905.112 115.753C898.61 112.068 891.577 110.221 884.012 110.221C876.448 110.221 869.703 112.115 863.201 115.891C856.699 119.668 851.456 125.153 847.483 132.337C843.499 139.52 841.512 147.963 841.512 157.664C841.512 167.365 843.499 175.807 847.483 182.991C851.456 190.174 856.699 195.648 863.201 199.436C869.703 203.213 876.633 205.107 884.012 205.107C891.392 205.107 898.61 203.167 905.112 199.286C911.614 195.406 916.846 189.874 920.83 182.69C924.803 175.518 926.801 166.972 926.801 157.075C926.801 147.177 924.803 138.977 920.83 131.898V131.91Z" fill="url(#paint3_radial_24_47738)" fill-opacity="0.1" shape-rendering="crispEdges"/>
<path d="M614.404 79.0064H656.685V169.423C656.685 188.56 672.115 203.989 691.251 203.989C710.388 203.989 725.817 188.56 725.817 169.423V79.0064H768.098V169.423C768.098 208.308 739.711 240.091 691.263 240.091C642.815 240.091 614.428 208.308 614.428 169.423V79.0064H614.404Z" fill="url(#paint4_radial_24_47738)" fill-opacity="0.1" shape-rendering="crispEdges"/>
<path d="M690.316 299.891C659.087 299.891 628.575 290.999 602.07 274.184L620.318 243.325C641.325 256.652 665.532 263.709 690.304 263.709C715.077 263.709 739.826 256.502 760.995 242.886L779.427 273.629C752.715 290.814 721.89 299.903 690.304 299.903L690.316 299.891Z" fill="url(#paint5_radial_24_47738)" fill-opacity="0.1" shape-rendering="crispEdges"/>
<path d="M95.233 66.6718C95.233 56.9014 97.0577 49.8566 100.499 46.2879C104.726 41.9109 113.134 40.9985 119.451 40.9985H154.41V3.56836H117.407C97.4735 3.56836 82.0903 8.90397 71.6847 19.4366C61.3137 29.9346 56.0474 45.5257 56.0474 65.8056V76.2575H21.4121V113.988H56.0474V237.562H95.5217V113.988H151.118V76.2575H95.233V66.6718Z" fill="url(#paint6_radial_24_47738)" fill-opacity="0.1" shape-rendering="crispEdges"/>
<path d="M225.066 3.56836H184.321V41.0101H225.066V3.56836Z" fill="url(#paint7_radial_24_47738)" fill-opacity="0.1" shape-rendering="crispEdges"/>
<path d="M225.066 76.3154H184.321V237.562H225.066V76.3154Z" stroke="url(#paint8_radial_24_47738)" stroke-width="1.42741" shape-rendering="crispEdges" mask="url(#path-1-inside-1_24_47738)"/>
<path d="M332.471 200.016L373.216 76.3154H416.582L356.921 237.562H307.445L248.072 76.3154H291.727L332.471 200.016Z" stroke="url(#paint9_radial_24_47738)" stroke-width="1.42741" shape-rendering="crispEdges" mask="url(#path-1-inside-1_24_47738)"/>
<path d="M583.788 169.157H465.908C466.878 180.798 470.955 189.922 478.127 196.516C485.299 203.111 494.134 206.414 504.609 206.414C519.749 206.414 530.513 199.923 536.911 186.908H580.867C576.212 202.441 567.285 215.191 554.085 225.181C540.884 235.171 524.692 240.172 505.475 240.172C489.953 240.172 476.025 236.73 463.702 229.835C451.38 222.952 441.771 213.193 434.888 200.582C427.993 187.97 424.551 173.419 424.551 156.927C424.551 140.435 427.947 125.594 434.738 112.971C441.528 100.36 451.033 90.6588 463.264 83.868C475.494 77.0773 489.549 73.6819 505.463 73.6819C521.378 73.6819 534.521 76.9849 546.647 83.5793C558.773 90.1738 568.186 99.54 574.884 111.666C581.583 123.793 584.92 137.721 584.92 153.439C584.92 159.26 584.528 164.503 583.754 169.157H583.788ZM542.743 141.798C542.547 131.323 538.759 122.927 531.391 116.621C524.011 110.315 514.991 107.162 504.32 107.162C494.226 107.162 485.738 110.223 478.855 116.332C471.96 122.442 467.745 130.93 466.197 141.798H542.743Z" stroke="url(#paint10_radial_24_47738)" stroke-width="1.42741" shape-rendering="crispEdges" mask="url(#path-1-inside-1_24_47738)"/>
<path d="M863.201 81.8448C872.417 76.9019 882.938 74.4189 894.776 74.4189C908.554 74.4189 921.015 77.8142 932.183 84.605C943.339 91.3958 952.163 101.051 958.665 113.558C965.167 126.077 968.412 140.583 968.412 157.075C968.412 173.567 965.155 188.176 958.665 200.88C952.163 213.595 943.339 223.435 932.183 230.422C921.027 237.409 908.554 240.897 894.776 240.897C882.938 240.897 872.51 238.472 863.49 233.621C854.47 228.771 847.137 222.661 841.512 215.281V307.939H800.768V77.052H841.512V100.335C846.756 92.9665 853.974 86.7993 863.201 81.8564V81.8448ZM920.83 131.91C916.846 124.83 911.614 119.448 905.112 115.753C898.61 112.068 891.577 110.221 884.012 110.221C876.448 110.221 869.703 112.115 863.201 115.891C856.699 119.668 851.456 125.153 847.483 132.337C843.499 139.52 841.512 147.963 841.512 157.664C841.512 167.365 843.499 175.807 847.483 182.991C851.456 190.174 856.699 195.648 863.201 199.436C869.703 203.213 876.633 205.107 884.012 205.107C891.392 205.107 898.61 203.167 905.112 199.286C911.614 195.406 916.846 189.874 920.83 182.69C924.803 175.518 926.801 166.972 926.801 157.075C926.801 147.177 924.803 138.977 920.83 131.898V131.91Z" stroke="url(#paint11_radial_24_47738)" stroke-width="1.42741" shape-rendering="crispEdges" mask="url(#path-1-inside-1_24_47738)"/>
<path d="M614.404 79.0064H656.685V169.423C656.685 188.56 672.115 203.989 691.251 203.989C710.388 203.989 725.817 188.56 725.817 169.423V79.0064H768.098V169.423C768.098 208.308 739.711 240.091 691.263 240.091C642.815 240.091 614.428 208.308 614.428 169.423V79.0064H614.404Z" stroke="url(#paint12_radial_24_47738)" stroke-width="1.42741" shape-rendering="crispEdges" mask="url(#path-1-inside-1_24_47738)"/>
<path d="M690.316 299.891C659.087 299.891 628.575 290.999 602.07 274.184L620.318 243.325C641.325 256.652 665.532 263.709 690.304 263.709C715.077 263.709 739.826 256.502 760.995 242.886L779.427 273.629C752.715 290.814 721.89 299.903 690.304 299.903L690.316 299.891Z" stroke="url(#paint13_radial_24_47738)" stroke-width="1.42741" shape-rendering="crispEdges" mask="url(#path-1-inside-1_24_47738)"/>
<path d="M95.233 66.6718C95.233 56.9014 97.0577 49.8566 100.499 46.2879C104.726 41.9109 113.134 40.9985 119.451 40.9985H154.41V3.56836H117.407C97.4735 3.56836 82.0903 8.90397 71.6847 19.4366C61.3137 29.9346 56.0474 45.5257 56.0474 65.8056V76.2575H21.4121V113.988H56.0474V237.562H95.5217V113.988H151.118V76.2575H95.233V66.6718Z" stroke="url(#paint14_radial_24_47738)" stroke-width="1.42741" shape-rendering="crispEdges" mask="url(#path-1-inside-1_24_47738)"/>
<path d="M225.066 3.56836H184.321V41.0101H225.066V3.56836Z" stroke="url(#paint15_radial_24_47738)" stroke-width="1.42741" shape-rendering="crispEdges" mask="url(#path-1-inside-1_24_47738)"/>
</g>
<defs>
<filter id="filter0_ddddi_24_47738" x="0.000963211" y="-0.000164986" width="989.822" height="382.164" filterUnits="userSpaceOnUse" color-interpolation-filters="sRGB">
<feFlood flood-opacity="0" result="BackgroundImageFix"/>
<feColorMatrix in="SourceAlpha" type="matrix" values="0 0 0 0 0 0 0 0 0 0 0 0 0 0 0 0 0 0 127 0" result="hardAlpha"/>
<feOffset dy="3.56852"/>
<feGaussianBlur stdDeviation="3.56852"/>
<feComposite in2="hardAlpha" operator="out"/>
<feColorMatrix type="matrix" values="0 0 0 0 0 0 0 0 0 0.0392157 0 0 0 0 0.101961 0 0 0 0.05 0"/>
<feBlend mode="normal" in2="BackgroundImageFix" result="effect1_dropShadow_24_47738"/>
<feColorMatrix in="SourceAlpha" type="matrix" values="0 0 0 0 0 0 0 0 0 0 0 0 0 0 0 0 0 0 127 0" result="hardAlpha"/>
<feOffset dy="13.5604"/>
<feGaussianBlur stdDeviation="6.7802"/>
<feComposite in2="hardAlpha" operator="out"/>
<feColorMatrix type="matrix" values="0 0 0 0 0 0 0 0 0 0.0392157 0 0 0 0 0.101961 0 0 0 0.04 0"/>
<feBlend mode="normal" in2="effect1_dropShadow_24_47738" result="effect2_dropShadow_24_47738"/>
<feColorMatrix in="SourceAlpha" type="matrix" values="0 0 0 0 0 0 0 0 0 0 0 0 0 0 0 0 0 0 127 0" result="hardAlpha"/>
<feOffset dy="29.9756"/>
<feGaussianBlur stdDeviation="8.92131"/>
<feComposite in2="hardAlpha" operator="out"/>
<feColorMatrix type="matrix" values="0 0 0 0 0 0 0 0 0 0.0392157 0 0 0 0 0.101961 0 0 0 0.03 0"/>
<feBlend mode="normal" in2="effect2_dropShadow_24_47738" result="effect3_dropShadow_24_47738"/>
<feColorMatrix in="SourceAlpha" type="matrix" values="0 0 0 0 0 0 0 0 0 0 0 0 0 0 0 0 0 0 127 0" result="hardAlpha"/>
<feOffset dy="52.8142"/>
<feGaussianBlur stdDeviation="10.7056"/>
<feComposite in2="hardAlpha" operator="out"/>
<feColorMatrix type="matrix" values="0 0 0 0 0 0 0 0 0 0.0392157 0 0 0 0 0.101961 0 0 0 0.01 0"/>
<feBlend mode="normal" in2="effect3_dropShadow_24_47738" result="effect4_dropShadow_24_47738"/>
<feBlend mode="normal" in="SourceGraphic" in2="BackgroundImageFix" result="shape"/>
<feColorMatrix in="SourceAlpha" type="matrix" values="0 0 0 0 0 0 0 0 0 0 0 0 0 0 0 0 0 0 127 0" result="hardAlpha"/>
<feOffset dy="1.90927"/>
<feGaussianBlur stdDeviation="0.954637"/>
<feComposite in2="hardAlpha" operator="arithmetic" k2="-1" k3="1"/>
<feColorMatrix type="matrix" values="0 0 0 0 1 0 0 0 0 1 0 0 0 0 1 0 0 0 0.25 0"/>
<feBlend mode="normal" in2="shape" result="effect5_innerShadow_24_47738"/>
<feBlend mode="normal" in="effect5_innerShadow_24_47738" in2="effect4_dropShadow_24_47738" result="effect5_innerShadow_24_47738"/>
</filter>
<clipPath id="bgblur_0_24_47738_clip_path" transform="translate(-0.000963211 0.000164986)"><path d="M225.066 76.3154H184.321V237.562H225.066V76.3154Z"/>
<path d="M332.471 200.016L373.216 76.3154H416.582L356.921 237.562H307.445L248.072 76.3154H291.727L332.471 200.016Z"/>
<path d="M583.788 169.157H465.908C466.878 180.798 470.955 189.922 478.127 196.516C485.299 203.111 494.134 206.414 504.609 206.414C519.749 206.414 530.513 199.923 536.911 186.908H580.867C576.212 202.441 567.285 215.191 554.085 225.181C540.884 235.171 524.692 240.172 505.475 240.172C489.953 240.172 476.025 236.73 463.702 229.835C451.38 222.952 441.771 213.193 434.888 200.582C427.993 187.97 424.551 173.419 424.551 156.927C424.551 140.435 427.947 125.594 434.738 112.971C441.528 100.36 451.033 90.6588 463.264 83.868C475.494 77.0773 489.549 73.6819 505.463 73.6819C521.378 73.6819 534.521 76.9849 546.647 83.5793C558.773 90.1738 568.186 99.54 574.884 111.666C581.583 123.793 584.92 137.721 584.92 153.439C584.92 159.26 584.528 164.503 583.754 169.157H583.788ZM542.743 141.798C542.547 131.323 538.759 122.927 531.391 116.621C524.011 110.315 514.991 107.162 504.32 107.162C494.226 107.162 485.738 110.223 478.855 116.332C471.96 122.442 467.745 130.93 466.197 141.798H542.743Z"/>
<path d="M863.201 81.8448C872.417 76.9019 882.938 74.4189 894.776 74.4189C908.554 74.4189 921.015 77.8142 932.183 84.605C943.339 91.3958 952.163 101.051 958.665 113.558C965.167 126.077 968.412 140.583 968.412 157.075C968.412 173.567 965.155 188.176 958.665 200.88C952.163 213.595 943.339 223.435 932.183 230.422C921.027 237.409 908.554 240.897 894.776 240.897C882.938 240.897 872.51 238.472 863.49 233.621C854.47 228.771 847.137 222.661 841.512 215.281V307.939H800.768V77.052H841.512V100.335C846.756 92.9665 853.974 86.7993 863.201 81.8564V81.8448ZM920.83 131.91C916.846 124.83 911.614 119.448 905.112 115.753C898.61 112.068 891.577 110.221 884.012 110.221C876.448 110.221 869.703 112.115 863.201 115.891C856.699 119.668 851.456 125.153 847.483 132.337C843.499 139.52 841.512 147.963 841.512 157.664C841.512 167.365 843.499 175.807 847.483 182.991C851.456 190.174 856.699 195.648 863.201 199.436C869.703 203.213 876.633 205.107 884.012 205.107C891.392 205.107 898.61 203.167 905.112 199.286C911.614 195.406 916.846 189.874 920.83 182.69C924.803 175.518 926.801 166.972 926.801 157.075C926.801 147.177 924.803 138.977 920.83 131.898V131.91Z"/>
<path d="M614.404 79.0064H656.685V169.423C656.685 188.56 672.115 203.989 691.251 203.989C710.388 203.989 725.817 188.56 725.817 169.423V79.0064H768.098V169.423C768.098 208.308 739.711 240.091 691.263 240.091C642.815 240.091 614.428 208.308 614.428 169.423V79.0064H614.404Z"/>
<path d="M690.316 299.891C659.087 299.891 628.575 290.999 602.07 274.184L620.318 243.325C641.325 256.652 665.532 263.709 690.304 263.709C715.077 263.709 739.826 256.502 760.995 242.886L779.427 273.629C752.715 290.814 721.89 299.903 690.304 299.903L690.316 299.891Z"/>
<path d="M95.233 66.6718C95.233 56.9014 97.0577 49.8566 100.499 46.2879C104.726 41.9109 113.134 40.9985 119.451 40.9985H154.41V3.56836H117.407C97.4735 3.56836 82.0903 8.90397 71.6847 19.4366C61.3137 29.9346 56.0474 45.5257 56.0474 65.8056V76.2575H21.4121V113.988H56.0474V237.562H95.5217V113.988H151.118V76.2575H95.233V66.6718Z"/>
<path d="M225.066 3.56836H184.321V41.0101H225.066V3.56836Z"/>
</clipPath><radialGradient id="paint0_radial_24_47738" cx="0" cy="0" r="1" gradientTransform="matrix(-1.5612 50.1778 -8.85425 -0.21607 536.568 178.685)" gradientUnits="userSpaceOnUse">
<stop stop-color="#57FFCF"/>
<stop offset="1" stop-color="white"/>
</radialGradient>
<radialGradient id="paint1_radial_24_47738" cx="0" cy="0" r="1" gradientTransform="matrix(-1.5612 50.1778 -8.85425 -0.21607 536.568 178.685)" gradientUnits="userSpaceOnUse">
<stop stop-color="#57FFCF"/>
<stop offset="1" stop-color="white"/>
</radialGradient>
<radialGradient id="paint2_radial_24_47738" cx="0" cy="0" r="1" gradientTransform="matrix(-1.5612 50.1778 -8.85425 -0.21607 536.568 178.685)" gradientUnits="userSpaceOnUse">
<stop stop-color="#57FFCF"/>
<stop offset="1" stop-color="white"/>
</radialGradient>
<radialGradient id="paint3_radial_24_47738" cx="0" cy="0" r="1" gradientTransform="matrix(-1.5612 50.1778 -8.85425 -0.21607 536.568 178.685)" gradientUnits="userSpaceOnUse">
<stop stop-color="#57FFCF"/>
<stop offset="1" stop-color="white"/>
</radialGradient>
<radialGradient id="paint4_radial_24_47738" cx="0" cy="0" r="1" gradientTransform="matrix(-1.5612 50.1778 -8.85425 -0.21607 536.568 178.685)" gradientUnits="userSpaceOnUse">
<stop stop-color="#57FFCF"/>
<stop offset="1" stop-color="white"/>
</radialGradient>
<radialGradient id="paint5_radial_24_47738" cx="0" cy="0" r="1" gradientTransform="matrix(-1.5612 50.1778 -8.85425 -0.21607 536.568 178.685)" gradientUnits="userSpaceOnUse">
<stop stop-color="#57FFCF"/>
<stop offset="1" stop-color="white"/>
</radialGradient>
<radialGradient id="paint6_radial_24_47738" cx="0" cy="0" r="1" gradientTransform="matrix(-1.5612 50.1778 -8.85425 -0.21607 536.568 178.685)" gradientUnits="userSpaceOnUse">
<stop stop-color="#57FFCF"/>
<stop offset="1" stop-color="white"/>
</radialGradient>
<radialGradient id="paint7_radial_24_47738" cx="0" cy="0" r="1" gradientTransform="matrix(-1.5612 50.1778 -8.85425 -0.21607 536.568 178.685)" gradientUnits="userSpaceOnUse">
<stop stop-color="#57FFCF"/>
<stop offset="1" stop-color="white"/>
</radialGradient>
<radialGradient id="paint8_radial_24_47738" cx="0" cy="0" r="1" gradientTransform="matrix(0.968574 -69.9444 669.351 16.8873 519.747 280.731)" gradientUnits="userSpaceOnUse">
<stop stop-color="white" stop-opacity="0.5"/>
<stop offset="1" stop-color="white" stop-opacity="0"/>
</radialGradient>
<radialGradient id="paint9_radial_24_47738" cx="0" cy="0" r="1" gradientTransform="matrix(0.968574 -69.9444 669.351 16.8873 519.747 280.731)" gradientUnits="userSpaceOnUse">
<stop stop-color="white" stop-opacity="0.5"/>
<stop offset="1" stop-color="white" stop-opacity="0"/>
</radialGradient>
<radialGradient id="paint10_radial_24_47738" cx="0" cy="0" r="1" gradientTransform="matrix(0.968574 -69.9444 669.351 16.8873 519.747 280.731)" gradientUnits="userSpaceOnUse">
<stop stop-color="white" stop-opacity="0.5"/>
<stop offset="1" stop-color="white" stop-opacity="0"/>
</radialGradient>
<radialGradient id="paint11_radial_24_47738" cx="0" cy="0" r="1" gradientTransform="matrix(0.968574 -69.9444 669.351 16.8873 519.747 280.731)" gradientUnits="userSpaceOnUse">
<stop stop-color="white" stop-opacity="0.5"/>
<stop offset="1" stop-color="white" stop-opacity="0"/>
</radialGradient>
<radialGradient id="paint12_radial_24_47738" cx="0" cy="0" r="1" gradientTransform="matrix(0.968574 -69.9444 669.351 16.8873 519.747 280.731)" gradientUnits="userSpaceOnUse">
<stop stop-color="white" stop-opacity="0.5"/>
<stop offset="1" stop-color="white" stop-opacity="0"/>
</radialGradient>
<radialGradient id="paint13_radial_24_47738" cx="0" cy="0" r="1" gradientTransform="matrix(0.968574 -69.9444 669.351 16.8873 519.747 280.731)" gradientUnits="userSpaceOnUse">
<stop stop-color="white" stop-opacity="0.5"/>
<stop offset="1" stop-color="white" stop-opacity="0"/>
</radialGradient>
<radialGradient id="paint14_radial_24_47738" cx="0" cy="0" r="1" gradientTransform="matrix(0.968574 -69.9444 669.351 16.8873 519.747 280.731)" gradientUnits="userSpaceOnUse">
<stop stop-color="white" stop-opacity="0.5"/>
<stop offset="1" stop-color="white" stop-opacity="0"/>
</radialGradient>
<radialGradient id="paint15_radial_24_47738" cx="0" cy="0" r="1" gradientTransform="matrix(0.968574 -69.9444 669.351 16.8873 519.747 280.731)" gradientUnits="userSpaceOnUse">
<stop stop-color="white" stop-opacity="0.5"/>
<stop offset="1" stop-color="white" stop-opacity="0"/>
</radialGradient>
</defs>
</svg>
