<svg width="72" height="23" viewBox="0 0 72 23" fill="none" xmlns="http://www.w3.org/2000/svg">
<g clip-path="url(#clip0_158_84047)">
<path d="M8.90909 7.99273V10.3855H14.6618C14.5091 11.7091 14.0509 12.7273 13.3382 13.3891C12.5236 14.2036 11.2 15.12 8.90909 15.12C5.39636 15.12 2.64727 12.2691 2.64727 8.75636C2.64727 5.24364 5.34545 2.39273 8.90909 2.39273C10.7927 2.39273 12.2182 3.15636 13.2364 4.12364L14.9164 2.44364C13.4909 1.06909 11.5564 0 8.90909 0C4.07273 0 0 3.92 0 8.75636C0 13.5927 4.07273 17.5127 8.90909 17.5127C11.5055 17.5127 13.4909 16.6473 15.0182 15.0691C16.5964 13.4909 17.1055 11.2509 17.1055 9.46909C17.1055 8.90909 17.0545 8.4 17.0036 7.99273H8.90909Z" fill="white" fill-opacity="0.8"/>
<path d="M24.2331 6.00732C21.1276 6.00732 18.5312 8.40005 18.5312 11.6582C18.5312 14.9164 21.0767 17.3091 24.2331 17.3091C27.3894 17.3091 29.9349 14.9673 29.9349 11.7091C29.9349 8.40005 27.3894 6.00732 24.2331 6.00732ZM24.2331 15.1201C22.5022 15.1201 21.0258 13.6946 21.0258 11.7091C21.0258 9.67278 22.5022 8.29823 24.2331 8.29823C25.964 8.29823 27.4403 9.67278 27.4403 11.7091C27.4403 13.6946 25.964 15.1201 24.2331 15.1201Z" fill="white" fill-opacity="0.8"/>
<path d="M52.0797 7.28005H51.9779C51.4179 6.61823 50.3488 6.00732 48.9742 6.00732C46.1233 6.00732 43.6797 8.45096 43.6797 11.6582C43.6797 14.8146 46.1233 17.3091 48.9742 17.3091C50.3488 17.3091 51.4179 16.6982 51.9779 16.0364H52.0797V16.851C52.0797 18.9891 50.9088 20.1601 49.0761 20.1601C47.5488 20.1601 46.6324 19.091 46.2251 18.1237L44.087 19.0401C44.6979 20.5164 46.3779 22.4001 49.127 22.4001C52.0288 22.4001 54.5233 20.6691 54.5233 16.4946V6.31278H52.1815V7.28005H52.0797ZM49.2288 15.1201C47.4979 15.1201 46.2251 13.6437 46.2251 11.7091C46.2251 9.72369 47.5488 8.29823 49.2288 8.29823C50.9088 8.29823 52.2324 9.7746 52.2324 11.7601C52.2833 13.6946 50.9597 15.1201 49.2288 15.1201Z" fill="white" fill-opacity="0.8"/>
<path d="M36.9088 6.00732C33.8034 6.00732 31.207 8.40005 31.207 11.6582C31.207 14.9164 33.7525 17.3091 36.9088 17.3091C40.0652 17.3091 42.6107 14.9673 42.6107 11.7091C42.6107 8.40005 40.0652 6.00732 36.9088 6.00732ZM36.9088 15.1201C35.1779 15.1201 33.7016 13.6946 33.7016 11.7091C33.7016 9.67278 35.1779 8.29823 36.9088 8.29823C38.6398 8.29823 40.1161 9.67278 40.1161 11.7091C40.1161 13.6946 38.6398 15.1201 36.9088 15.1201Z" fill="white" fill-opacity="0.8"/>
<path d="M56.4082 0.254578H58.8518V17.36H56.4082V0.254578Z" fill="white" fill-opacity="0.8"/>
<path d="M66.3852 15.1201C65.1124 15.1201 64.247 14.5601 63.6361 13.3891L71.2215 10.2837L70.967 9.62187C70.5088 8.34914 69.0324 6.00732 66.1306 6.00732C63.2288 6.00732 60.7852 8.29823 60.7852 11.6582C60.7852 14.8146 63.1779 17.3091 66.3852 17.3091C68.9815 17.3091 70.4579 15.731 71.1197 14.8146L69.1852 13.5419C68.5233 14.5091 67.6579 15.1201 66.3852 15.1201ZM66.2324 8.14551C67.2506 8.14551 68.1161 8.6546 68.3706 9.36732L63.2797 11.5055C63.2288 9.16369 64.9597 8.14551 66.2324 8.14551Z" fill="white" fill-opacity="0.8"/>
</g>
<defs>
<clipPath id="clip0_158_84047">
<rect width="71.2218" height="22.4" fill="white"/>
</clipPath>
</defs>
</svg>
