<svg width="45" height="34" viewBox="0 0 45 34" fill="none" xmlns="http://www.w3.org/2000/svg">
<g filter="url(#filter0_ddddd_386_3664)">
<path d="M28.616 12.5058C28.5135 12.0183 28.4191 11.3879 28.1981 10.4639C27.9771 9.53988 27.8202 9.32263 27.6787 8.83283C27.5372 8.34302 27.3424 7.87623 27.1167 7.26445C26.9135 6.641 26.7496 6.00548 26.6257 5.36157C26.5481 4.82044 26.7125 4.27256 27.0754 3.86365C27.5669 3.43558 28.2488 3.30076 28.8663 3.50958C29.3456 3.7524 29.7412 4.13312 30.0022 4.60272C30.3504 5.23664 30.6267 5.90742 30.8261 6.60263C31.1388 7.5574 31.3491 8.5427 31.4536 9.54192L31.5372 10.1326C31.5372 10.1326 31.6197 8.67895 31.6227 8.62703C31.6964 7.32912 31.6789 6.26041 31.8393 4.81117C31.8489 4.64245 31.9607 4.04983 31.9962 3.88257C32.0614 3.32632 32.4222 2.84878 32.9395 2.63403C33.5321 2.40753 34.1933 2.44506 34.7565 2.73718C35.2607 2.99814 35.5777 3.51819 35.5784 4.08593C35.5703 4.2287 35.6215 5.39047 35.6134 5.53324L35.4536 8.34971C35.4366 8.64823 35.3335 10.4653 35.3452 10.2576C35.4731 8.54673 35.7175 6.84653 36.0768 5.16892C36.2607 4.64738 36.6588 4.22931 37.1707 4.02007C37.8009 3.81227 38.4944 3.97208 38.9701 4.43472C39.3209 4.86647 39.511 5.40644 39.5084 5.96268L39.4163 7.58507L39.2601 10.3366C39.2601 10.3366 39.238 10.726 39.2468 10.5703C39.3842 10.2135 39.5332 9.88339 39.6518 9.62971C39.7703 9.37602 40.0082 8.85566 40.1824 8.54003C40.3584 8.23968 40.5532 7.95067 40.7654 7.67468C40.9876 7.35621 41.3072 7.11848 41.6762 6.99721C42.0085 6.89001 42.3697 6.92089 42.679 7.08294C42.9882 7.245 43.2192 7.52458 43.32 7.85876C43.3704 8.33591 43.343 8.81809 43.239 9.28647C43.1112 10.0076 42.9185 10.7158 42.6631 11.4022C42.4613 11.9767 42.2221 12.9787 42.104 13.4538C41.9858 13.9289 41.7038 15.228 41.5026 15.7895C41.2141 16.4565 40.8324 17.0794 40.369 17.6392C39.6994 18.3047 39.1339 19.067 38.6911 19.9007C38.57 20.3208 38.5016 20.7543 38.4876 21.1913C38.4626 21.5944 38.4923 21.9991 38.5756 22.3942C38.0418 22.4206 37.5066 22.3903 36.9791 22.3035C36.4774 22.1969 35.9119 21.1492 35.7608 20.8281C35.6868 20.6562 35.5219 20.5407 35.335 20.5301C35.1481 20.5195 34.9712 20.6156 34.8782 20.778C34.5517 21.2543 33.8779 22.1145 33.4336 22.1413C32.5582 22.1958 30.7729 21.9903 29.3582 21.91C29.3582 21.91 29.6785 20.6261 29.1599 20.1279C28.6413 19.6297 28.1401 19.0544 27.7584 18.6681L26.7489 17.4129C26.412 16.925 26.0115 15.9517 25.2869 14.7257C24.8694 14.0509 24.0693 13.2373 23.7419 12.5807C23.4661 12.0473 23.4125 11.4264 23.5926 10.8535C23.8568 10.0942 24.651 9.65635 25.4341 9.83823C26.0334 9.91202 26.5884 10.1921 27.0037 10.6305C27.3341 10.9508 27.641 11.2946 27.9219 11.6592C28.1156 11.9175 28.1608 12.0373 28.3775 12.349C28.5942 12.6608 28.733 12.9682 28.6412 12.5203" fill="#23F4BD"/>
<path d="M28.616 12.5058C28.5135 12.0183 28.4191 11.3879 28.1981 10.4639C27.9771 9.53988 27.8202 9.32263 27.6787 8.83283C27.5372 8.34302 27.3424 7.87623 27.1167 7.26445C26.9135 6.641 26.7496 6.00548 26.6257 5.36157C26.5481 4.82044 26.7125 4.27256 27.0754 3.86365C27.5669 3.43558 28.2488 3.30076 28.8663 3.50958C29.3456 3.7524 29.7412 4.13312 30.0022 4.60272C30.3504 5.23664 30.6267 5.90742 30.8261 6.60263C31.1388 7.5574 31.3491 8.5427 31.4536 9.54192L31.5372 10.1326C31.5372 10.1326 31.6197 8.67895 31.6227 8.62703C31.6964 7.32912 31.6789 6.26041 31.8393 4.81117C31.8489 4.64245 31.9607 4.04983 31.9962 3.88257C32.0614 3.32632 32.4222 2.84878 32.9395 2.63403C33.5321 2.40753 34.1933 2.44506 34.7565 2.73718C35.2607 2.99814 35.5777 3.51819 35.5784 4.08593C35.5703 4.2287 35.6215 5.39047 35.6134 5.53324L35.4536 8.34971C35.4366 8.64823 35.3335 10.4653 35.3452 10.2576C35.4731 8.54673 35.7175 6.84653 36.0768 5.16892C36.2607 4.64738 36.6588 4.22931 37.1707 4.02007C37.8009 3.81227 38.4944 3.97208 38.9701 4.43472C39.3209 4.86647 39.511 5.40644 39.5084 5.96268L39.4163 7.58507L39.2601 10.3366C39.2601 10.3366 39.238 10.726 39.2468 10.5703C39.3842 10.2135 39.5332 9.88339 39.6518 9.6297C39.7703 9.37602 40.0082 8.85566 40.1824 8.54003C40.3584 8.23968 40.5532 7.95067 40.7654 7.67468C40.9876 7.35621 41.3072 7.11848 41.6762 6.99721C42.0085 6.89001 42.3697 6.92089 42.679 7.08294C42.9882 7.245 43.2192 7.52458 43.32 7.85876C43.3704 8.33591 43.343 8.81809 43.239 9.28647C43.1112 10.0076 42.9185 10.7158 42.6631 11.4022C42.4613 11.9767 42.2221 12.9787 42.104 13.4538C41.9858 13.9289 41.7038 15.228 41.5026 15.7895C41.2141 16.4565 40.8324 17.0794 40.369 17.6392C39.6994 18.3047 39.1339 19.067 38.6911 19.9007C38.57 20.3208 38.5016 20.7543 38.4876 21.1913C38.4626 21.5944 38.4923 21.9991 38.5756 22.3942C38.0418 22.4206 37.5066 22.3903 36.9791 22.3035C36.4774 22.1969 35.9119 21.1492 35.7608 20.8281C35.6868 20.6562 35.5219 20.5407 35.335 20.5301C35.1481 20.5195 34.9712 20.6156 34.8782 20.778C34.5517 21.2543 33.8779 22.1145 33.4336 22.1413C32.5582 22.1958 30.7729 21.9903 29.3582 21.91C29.3582 21.91 29.6785 20.6261 29.1599 20.1279C28.6413 19.6297 28.1401 19.0544 27.7584 18.6681L26.7489 17.4129C26.412 16.925 26.0115 15.9517 25.2869 14.7257C24.8694 14.0509 24.0693 13.2373 23.7419 12.5807C23.4661 12.0473 23.4125 11.4264 23.5926 10.8535C23.8568 10.0942 24.651 9.65634 25.4341 9.83823C26.0334 9.91202 26.5884 10.1921 27.0037 10.6305C27.3341 10.9508 27.641 11.2946 27.9219 11.6592C28.1156 11.9175 28.1608 12.0373 28.3775 12.349C28.5942 12.6608 28.733 12.9682 28.6412 12.5203" stroke="#131822" stroke-width="0.975" stroke-linecap="round" stroke-linejoin="round"/>
<path d="M37.8771 18.4507L38.1314 13.9706C38.1466 13.7025 37.9411 13.4727 37.6723 13.4574C37.4035 13.4422 37.1732 13.6472 37.158 13.9154L36.9037 18.3955C36.8884 18.6636 37.094 18.8934 37.3628 18.9087C37.6316 18.9239 37.8619 18.7189 37.8771 18.4507Z" fill="#131822"/>
<path d="M35.2944 18.3039L35.5359 13.8207C35.5503 13.5531 35.344 13.3245 35.0751 13.31C34.8063 13.2955 34.5767 13.5007 34.5623 13.7683L34.3208 18.2514C34.3064 18.519 34.5127 18.7477 34.7815 18.7621C35.0504 18.7766 35.28 18.5714 35.2944 18.3039Z" fill="#131822"/>
<path d="M31.974 13.621L31.7461 18.0933C31.7323 18.3641 31.9391 18.5947 32.208 18.6083C32.4769 18.622 32.7061 18.4135 32.7199 18.1427L32.9477 13.6704C32.9615 13.3996 32.7547 13.169 32.4858 13.1554C32.2169 13.1417 31.9878 13.3502 31.974 13.621Z" fill="#131822"/>
</g>
<defs>
<filter id="filter0_ddddd_386_3664" x="0" y="0" width="44.832" height="33.8909" filterUnits="userSpaceOnUse" color-interpolation-filters="sRGB">
<feFlood flood-opacity="0" result="BackgroundImageFix"/>
<feColorMatrix in="SourceAlpha" type="matrix" values="0 0 0 0 0 0 0 0 0 0 0 0 0 0 0 0 0 0 127 0" result="hardAlpha"/>
<feOffset dx="-1"/>
<feGaussianBlur stdDeviation="1"/>
<feColorMatrix type="matrix" values="0 0 0 0 0 0 0 0 0 0 0 0 0 0 0 0 0 0 0.29 0"/>
<feBlend mode="normal" in2="BackgroundImageFix" result="effect1_dropShadow_386_3664"/>
<feColorMatrix in="SourceAlpha" type="matrix" values="0 0 0 0 0 0 0 0 0 0 0 0 0 0 0 0 0 0 127 0" result="hardAlpha"/>
<feOffset dx="-3" dy="1"/>
<feGaussianBlur stdDeviation="1.5"/>
<feColorMatrix type="matrix" values="0 0 0 0 0 0 0 0 0 0 0 0 0 0 0 0 0 0 0.26 0"/>
<feBlend mode="normal" in2="effect1_dropShadow_386_3664" result="effect2_dropShadow_386_3664"/>
<feColorMatrix in="SourceAlpha" type="matrix" values="0 0 0 0 0 0 0 0 0 0 0 0 0 0 0 0 0 0 127 0" result="hardAlpha"/>
<feOffset dx="-6" dy="2"/>
<feGaussianBlur stdDeviation="2"/>
<feColorMatrix type="matrix" values="0 0 0 0 0 0 0 0 0 0 0 0 0 0 0 0 0 0 0.15 0"/>
<feBlend mode="normal" in2="effect2_dropShadow_386_3664" result="effect3_dropShadow_386_3664"/>
<feColorMatrix in="SourceAlpha" type="matrix" values="0 0 0 0 0 0 0 0 0 0 0 0 0 0 0 0 0 0 127 0" result="hardAlpha"/>
<feOffset dx="-11" dy="4"/>
<feGaussianBlur stdDeviation="2.5"/>
<feColorMatrix type="matrix" values="0 0 0 0 0 0 0 0 0 0 0 0 0 0 0 0 0 0 0.04 0"/>
<feBlend mode="normal" in2="effect3_dropShadow_386_3664" result="effect4_dropShadow_386_3664"/>
<feColorMatrix in="SourceAlpha" type="matrix" values="0 0 0 0 0 0 0 0 0 0 0 0 0 0 0 0 0 0 127 0" result="hardAlpha"/>
<feOffset dx="-18" dy="6"/>
<feGaussianBlur stdDeviation="2.5"/>
<feColorMatrix type="matrix" values="0 0 0 0 0 0 0 0 0 0 0 0 0 0 0 0 0 0 0.01 0"/>
<feBlend mode="normal" in2="effect4_dropShadow_386_3664" result="effect5_dropShadow_386_3664"/>
<feBlend mode="normal" in="SourceGraphic" in2="effect5_dropShadow_386_3664" result="shape"/>
</filter>
</defs>
</svg>
