<svg width="13" height="13" viewBox="0 0 13 13" fill="currentColor" xmlns="http://www.w3.org/2000/svg">
  <path
    d="M6.25 0C6.59519 0 6.875 0.279825 6.875 0.625V2.5C6.875 2.84518 6.59519 3.125 6.25 3.125C5.90481 3.125 5.625 2.84518 5.625 2.5V0.625C5.625 0.279825 5.90481 0 6.25 0Z"
    fill="currentColor" fill-opacity="0.39" />
  <path
    d="M4.04029 4.04029C3.79621 4.28437 3.40049 4.28437 3.15641 4.04029L1.83058 2.71447C1.58651 2.47039 1.58651 2.07466 1.83058 1.83058C2.07466 1.58651 2.47039 1.58651 2.71447 1.83058L4.04029 3.15641C4.28437 3.40049 4.28437 3.79621 4.04029 4.04029Z"
    fill="currentColor" fill-opacity="0.3" />
  <path
    d="M3.125 6.25C3.125 6.59519 2.84518 6.875 2.5 6.875H0.625C0.279825 6.875 0 6.59519 0 6.25C0 5.90481 0.279825 5.625 0.625 5.625H2.5C2.84518 5.625 3.125 5.90481 3.125 6.25Z"
    fill="currentColor" fill-opacity="0.2" />
  <path
    d="M1.83058 10.6694C1.58651 10.4253 1.58651 10.0296 1.83058 9.78556L3.15641 8.45969C3.40049 8.21562 3.79621 8.21562 4.04029 8.45969C4.28437 8.70381 4.28437 9.0995 4.04029 9.34356L2.71447 10.6694C2.47039 10.9135 2.07466 10.9135 1.83058 10.6694Z"
    fill="currentColor" fill-opacity="0.1" />
  <path fill-rule="evenodd" clip-rule="evenodd"
    d="M6.875 10C6.875 9.65481 6.59519 9.375 6.25 9.375C5.90481 9.375 5.625 9.65481 5.625 10V11.875C5.625 12.2202 5.90481 12.5 6.25 12.5C6.59519 12.5 6.875 12.2202 6.875 11.875V10ZM11.875 6.875C12.2202 6.875 12.5 6.59519 12.5 6.25C12.5 5.90481 12.2202 5.625 11.875 5.625H10C9.65481 5.625 9.375 5.90481 9.375 6.25C9.375 6.59519 9.65481 6.875 10 6.875H11.875ZM9.78556 10.6694C10.0296 10.9135 10.4253 10.9135 10.6694 10.6694C10.9135 10.4253 10.9135 10.0296 10.6694 9.78556L9.34356 8.45969C9.0995 8.21562 8.70381 8.21562 8.45969 8.45969C8.21562 8.70381 8.21562 9.0995 8.45969 9.34356L9.78556 10.6694Z"
    fill="currentColor" />
  <path
    d="M8.45969 4.04029C8.21562 3.79621 8.21562 3.40049 8.45969 3.15641L9.78556 1.83058C10.0296 1.58651 10.4253 1.58651 10.6694 1.83058C10.9135 2.07466 10.9135 2.47039 10.6694 2.71447L9.34356 4.04029C9.0995 4.28437 8.70381 4.28437 8.45969 4.04029Z"
    fill="currentColor" fill-opacity="0.7" />
</svg>