<svg width="115" height="28" viewBox="0 0 115 28" fill="none" xmlns="http://www.w3.org/2000/svg">
<g clip-path="url(#clip0_158_84040)">
<path d="M29.9632 9.92383H41.5074V12.0777H36.9682V24.1855H34.4722V12.0777H29.9531V9.92383H29.9632ZM41.0142 13.8591H43.1479V15.8519H43.1882C43.2587 15.5701 43.3895 15.2984 43.5807 15.0367C43.772 14.775 44.0034 14.5234 44.2752 14.312C44.5469 14.0906 44.8489 13.9195 45.181 13.7786C45.5132 13.6478 45.8554 13.5773 46.1976 13.5773C46.4592 13.5773 46.6505 13.5874 46.7511 13.5974C46.8518 13.6075 46.9524 13.6276 47.0631 13.6377V15.8318C46.9021 15.8016 46.741 15.7815 46.5699 15.7614C46.3988 15.7412 46.2378 15.7312 46.0768 15.7312C45.6943 15.7312 45.332 15.8117 44.9898 15.9626C44.6476 16.1136 44.3557 16.3451 44.1041 16.637C43.8525 16.9389 43.6512 17.3013 43.5002 17.7441C43.3492 18.1869 43.2788 18.6902 43.2788 19.2639V24.1754H41.0042V13.8591H41.0142ZM57.5203 24.1855H55.286V22.7463H55.2457C54.9639 23.2696 54.5513 23.6823 53.9977 23.9943C53.4441 24.3063 52.8805 24.4673 52.3068 24.4673C50.9481 24.4673 49.9618 24.1352 49.3579 23.4609C48.754 22.7865 48.452 21.77 48.452 20.4112V13.8591H50.7267V20.1898C50.7267 21.0956 50.8978 21.7398 51.25 22.1122C51.5922 22.4846 52.0854 22.6758 52.7094 22.6758C53.1925 22.6758 53.585 22.6054 53.9071 22.4544C54.2292 22.3034 54.4909 22.1122 54.6821 21.8606C54.8834 21.619 55.0243 21.3171 55.1149 20.9749C55.2055 20.6327 55.2457 20.2603 55.2457 19.8577V13.8692H57.5203V24.1855ZM61.3953 20.8742C61.4657 21.5385 61.7173 22.0015 62.1501 22.2732C62.5929 22.5349 63.1163 22.6758 63.7303 22.6758C63.9416 22.6758 64.1832 22.6557 64.4549 22.6255C64.7267 22.5953 64.9883 22.5248 65.2198 22.4343C65.4614 22.3437 65.6526 22.2028 65.8137 22.0216C65.9646 21.8404 66.0351 21.6089 66.025 21.3171C66.0149 21.0252 65.9042 20.7836 65.7029 20.6025C65.5016 20.4112 65.25 20.2703 64.938 20.1496C64.626 20.0389 64.2738 19.9382 63.8712 19.8577C63.4686 19.7772 63.066 19.6866 62.6533 19.596C62.2306 19.5054 61.818 19.3846 61.4254 19.2538C61.0329 19.123 60.6807 18.9418 60.3687 18.7103C60.0566 18.4889 59.805 18.197 59.6239 17.8447C59.4326 17.4925 59.342 17.0597 59.342 16.5363C59.342 15.9727 59.483 15.5097 59.7547 15.1273C60.0265 14.7448 60.3787 14.4429 60.7914 14.2114C61.2141 13.9799 61.6771 13.8189 62.1904 13.7182C62.7037 13.6276 63.1968 13.5773 63.6598 13.5773C64.1932 13.5773 64.7065 13.6377 65.1896 13.7484C65.6727 13.8591 66.1156 14.0403 66.5081 14.302C66.9006 14.5536 67.2227 14.8857 67.4844 15.2883C67.7461 15.6909 67.9071 16.1841 67.9776 16.7578H65.6023C65.4916 16.2143 65.25 15.8419 64.8575 15.6607C64.465 15.4695 64.0121 15.3789 63.5088 15.3789C63.3478 15.3789 63.1566 15.389 62.9352 15.4192C62.7137 15.4493 62.5124 15.4997 62.3111 15.5701C62.1199 15.6406 61.9589 15.7513 61.818 15.8922C61.6871 16.0331 61.6167 16.2143 61.6167 16.4458C61.6167 16.7276 61.7173 16.949 61.9085 17.1201C62.0998 17.2912 62.3514 17.4321 62.6634 17.5529C62.9754 17.6636 63.3277 17.7642 63.7303 17.8447C64.1329 17.9253 64.5455 18.0158 64.9682 18.1064C65.3809 18.197 65.7835 18.3178 66.186 18.4486C66.5886 18.5795 66.9409 18.7606 67.2529 18.9921C67.5649 19.2236 67.8165 19.5054 68.0078 19.8476C68.199 20.1898 68.2996 20.6226 68.2996 21.1258C68.2996 21.7398 68.1587 22.2531 67.8769 22.6859C67.5951 23.1086 67.2328 23.4609 66.7899 23.7225C66.3471 23.9842 65.8438 24.1855 65.3004 24.3063C64.7569 24.4271 64.2134 24.4875 63.6799 24.4875C63.0257 24.4875 62.4219 24.417 61.8683 24.266C61.3147 24.1151 60.8316 23.8936 60.429 23.6018C60.0265 23.2998 59.7044 22.9274 59.4729 22.4846C59.2414 22.0417 59.1206 21.5083 59.1005 20.8944H61.3953V20.8742ZM68.9035 13.8591H70.6246V10.7592H72.8992V13.8591H74.9524V15.5601H72.8992V21.0755C72.8992 21.3171 72.9093 21.5184 72.9294 21.6995C72.9495 21.8706 72.9999 22.0216 73.0703 22.1424C73.1408 22.2632 73.2515 22.3537 73.4024 22.4141C73.5534 22.4745 73.7446 22.5047 74.0063 22.5047C74.1674 22.5047 74.3284 22.5047 74.4894 22.4946C74.6505 22.4846 74.8115 22.4644 74.9725 22.4242V24.1855C74.7209 24.2157 74.4693 24.2358 74.2378 24.266C73.9963 24.2962 73.7547 24.3063 73.5031 24.3063C72.8992 24.3063 72.4161 24.2459 72.0538 24.1352C71.6914 24.0245 71.3996 23.8534 71.1983 23.632C70.9869 23.4105 70.8561 23.1388 70.7756 22.8066C70.7051 22.4745 70.6548 22.0921 70.6447 21.6693V15.5802H68.9236V13.8591H68.9035ZM76.5628 13.8591H78.7166V15.2581H78.7569C79.0789 14.6542 79.5218 14.2315 80.0955 13.9698C80.6692 13.7082 81.2831 13.5773 81.9574 13.5773C82.7727 13.5773 83.4772 13.7182 84.0811 14.0101C84.685 14.2919 85.1882 14.6844 85.5908 15.1877C85.9934 15.6909 86.2853 16.2747 86.4865 16.9389C86.6878 17.6032 86.7885 18.3178 86.7885 19.0726C86.7885 19.7671 86.6979 20.4414 86.5167 21.0856C86.3356 21.7398 86.0638 22.3135 85.7015 22.8167C85.3392 23.3199 84.8762 23.7125 84.3126 24.0144C83.749 24.3164 83.0947 24.4673 82.3298 24.4673C81.9977 24.4673 81.6656 24.4371 81.3334 24.3767C81.0013 24.3164 80.6792 24.2157 80.3773 24.0849C80.0753 23.954 79.7835 23.7829 79.5318 23.5716C79.2702 23.3602 79.0588 23.1187 78.8776 22.8469H78.8374V28H76.5628V13.8591ZM84.5139 19.0324C84.5139 18.5694 84.4535 18.1165 84.3327 17.6736C84.2119 17.2308 84.0308 16.8483 83.7892 16.5061C83.5477 16.1639 83.2457 15.8922 82.8935 15.6909C82.5311 15.4896 82.1185 15.3789 81.6555 15.3789C80.6993 15.3789 79.9747 15.711 79.4916 16.3753C79.0085 17.0396 78.7669 17.9253 78.7669 19.0324C78.7669 19.5557 78.8273 20.0389 78.9582 20.4817C79.089 20.9245 79.2702 21.307 79.5318 21.6291C79.7835 21.9511 80.0854 22.2028 80.4377 22.3839C80.7899 22.5752 81.2026 22.6657 81.6656 22.6657C82.1889 22.6657 82.6217 22.555 82.984 22.3437C83.3464 22.1323 83.6382 21.8505 83.8697 21.5184C84.1012 21.1762 84.2723 20.7937 84.373 20.3609C84.4635 19.9281 84.5139 19.4853 84.5139 19.0324ZM88.5297 9.92383H90.8043V12.0777H88.5297V9.92383ZM88.5297 13.8591H90.8043V24.1855H88.5297V13.8591ZM92.8374 9.92383H95.112V24.1855H92.8374V9.92383ZM102.087 24.4673C101.262 24.4673 100.527 24.3264 99.8827 24.0547C99.2385 23.7829 98.695 23.4005 98.2421 22.9274C97.7993 22.4443 97.4571 21.8706 97.2256 21.2064C96.9941 20.5421 96.8733 19.8074 96.8733 19.0123C96.8733 18.2272 96.9941 17.5025 97.2256 16.8383C97.4571 16.174 97.7993 15.6003 98.2421 15.1172C98.685 14.6341 99.2385 14.2617 99.8827 13.99C100.527 13.7182 101.262 13.5773 102.087 13.5773C102.912 13.5773 103.647 13.7182 104.291 13.99C104.935 14.2617 105.479 14.6442 105.932 15.1172C106.374 15.6003 106.717 16.174 106.948 16.8383C107.18 17.5025 107.3 18.2272 107.3 19.0123C107.3 19.8074 107.18 20.5421 106.948 21.2064C106.717 21.8706 106.374 22.4443 105.932 22.9274C105.489 23.4105 104.935 23.7829 104.291 24.0547C103.647 24.3264 102.912 24.4673 102.087 24.4673ZM102.087 22.6657C102.59 22.6657 103.033 22.555 103.405 22.3437C103.778 22.1323 104.08 21.8505 104.321 21.5083C104.563 21.1661 104.734 20.7736 104.855 20.3408C104.965 19.908 105.026 19.4652 105.026 19.0123C105.026 18.5694 104.965 18.1366 104.855 17.6938C104.744 17.2509 104.563 16.8685 104.321 16.5263C104.08 16.1841 103.778 15.9123 103.405 15.701C103.033 15.4896 102.59 15.3789 102.087 15.3789C101.584 15.3789 101.141 15.4896 100.768 15.701C100.396 15.9123 100.094 16.1941 99.8525 16.5263C99.6109 16.8685 99.4398 17.2509 99.319 17.6938C99.2083 18.1366 99.1479 18.5694 99.1479 19.0123C99.1479 19.4652 99.2083 19.908 99.319 20.3408C99.4297 20.7736 99.6109 21.1661 99.8525 21.5083C100.094 21.8505 100.396 22.1323 100.768 22.3437C101.141 22.5651 101.584 22.6657 102.087 22.6657ZM107.965 13.8591H109.686V10.7592H111.96V13.8591H114.014V15.5601H111.96V21.0755C111.96 21.3171 111.97 21.5184 111.991 21.6995C112.011 21.8706 112.061 22.0216 112.131 22.1424C112.202 22.2632 112.313 22.3537 112.464 22.4141C112.615 22.4745 112.806 22.5047 113.067 22.5047C113.228 22.5047 113.389 22.5047 113.551 22.4946C113.712 22.4846 113.873 22.4644 114.034 22.4242V24.1855C113.782 24.2157 113.53 24.2358 113.299 24.266C113.057 24.2962 112.816 24.3063 112.564 24.3063C111.96 24.3063 111.477 24.2459 111.115 24.1352C110.753 24.0245 110.461 23.8534 110.259 23.632C110.048 23.4105 109.917 23.1388 109.837 22.8066C109.766 22.4745 109.716 22.0921 109.706 21.6693V15.5802H107.985V13.8591H107.965Z" fill="white" fill-opacity="0.8"/>
<path d="M27.3055 9.92379H16.8785L13.6578 0L10.427 9.92379L0 9.91373L8.44428 16.0532L5.21351 25.9669L13.6578 19.8375L22.092 25.9669L18.8713 16.0532L27.3055 9.92379Z" fill="white" fill-opacity="0.8"/>
<path d="M19.5964 18.2977L18.8717 16.0533L13.6582 19.8376L19.5964 18.2977Z" fill="white" fill-opacity="0.8"/>
</g>
<defs>
<clipPath id="clip0_158_84040">
<rect width="114.013" height="28" fill="white"/>
</clipPath>
</defs>
</svg>
