<svg viewBox="0 0 54 18" fill="none" xmlns="http://www.w3.org/2000/svg">
  <path
    d="M51.8471 10.73L53.3352 11.722C52.8522 12.4335 51.697 13.654 49.6998 13.654C47.2197 13.654 45.3726 11.7351 45.3726 9.2941C45.3726 6.69645 47.2392 4.93423 49.491 4.93423C51.7557 4.93423 52.8653 6.73561 53.2243 7.7081L53.4201 8.20413L47.5852 10.619C48.029 11.4936 48.7208 11.9374 49.6998 11.9374C50.6788 11.9374 51.3576 11.4544 51.8471 10.73ZM47.2719 9.15703L51.1683 7.5384C50.953 6.99668 50.3133 6.61161 49.5497 6.61161C48.5772 6.61161 47.2262 7.47314 47.2719 9.15703Z"
    fill="#FF302F" />
  <path d="M42.5594 0.489502H44.4392V13.2558H42.5594V0.489502Z" fill="#20B15A" />
  <path
    d="M39.5962 5.27359H41.4106V13.0274C41.4106 16.245 39.5113 17.57 37.2661 17.57C35.1515 17.57 33.8788 16.1471 33.4023 14.9919L35.0666 14.3001C35.3669 15.0115 36.0913 15.8534 37.2661 15.8534C38.7086 15.8534 39.5962 14.9593 39.5962 13.2884V12.6619H39.5309C39.1002 13.184 38.2778 13.6539 37.2335 13.6539C35.0536 13.6539 33.0564 11.7546 33.0564 9.30711C33.0564 6.84653 35.0536 4.92767 37.2335 4.92767C38.2713 4.92767 39.1002 5.39107 39.5309 5.90016H39.5962V5.27359ZM39.7267 9.30711C39.7267 7.7668 38.702 6.64421 37.3967 6.64421C36.0783 6.64421 34.9687 7.7668 34.9687 9.30711C34.9687 10.8278 36.0783 11.9309 37.3967 11.9309C38.702 11.9374 39.7267 10.8278 39.7267 9.30711Z"
    fill="#3686F7" />
  <path
    d="M22.7378 9.27453C22.7378 11.7873 20.7797 13.6344 18.3779 13.6344C15.9761 13.6344 14.018 11.7808 14.018 9.27453C14.018 6.74868 15.9761 4.90814 18.3779 4.90814C20.7797 4.90814 22.7378 6.74868 22.7378 9.27453ZM20.832 9.27453C20.832 7.70811 19.6963 6.6312 18.3779 6.6312C17.0595 6.6312 15.9238 7.70811 15.9238 9.27453C15.9238 10.8279 17.0595 11.9179 18.3779 11.9179C19.6963 11.9179 20.832 10.8279 20.832 9.27453Z"
    fill="#FF302F" />
  <path
    d="M32.2604 9.2941C32.2604 11.8069 30.3023 13.654 27.9005 13.654C25.4987 13.654 23.5406 11.8069 23.5406 9.2941C23.5406 6.76825 25.4987 4.93423 27.9005 4.93423C30.3023 4.93423 32.2604 6.76172 32.2604 9.2941ZM30.348 9.2941C30.348 7.72768 29.2124 6.65077 27.894 6.65077C26.5756 6.65077 25.4399 7.72768 25.4399 9.2941C25.4399 10.8475 26.5756 11.9374 27.894 11.9374C29.2189 11.9374 30.348 10.8409 30.348 9.2941Z"
    fill="#FFBA40" />
  <path
    d="M6.85189 11.7416C4.11718 11.7416 1.97641 9.53556 1.97641 6.80086C1.97641 4.06616 4.11718 1.86012 6.85189 1.86012C8.32693 1.86012 9.40384 2.441 10.2001 3.18505L11.512 1.87317C10.4024 0.809316 8.92086 0 6.85189 0C3.10554 0 -0.046875 3.05451 -0.046875 6.80086C-0.046875 10.5472 3.10554 13.6017 6.85189 13.6017C8.87518 13.6017 10.4024 12.936 11.5968 11.6959C12.8239 10.4689 13.2024 8.74583 13.2024 7.34911C13.2024 6.91182 13.1502 6.46147 13.0914 6.12861H6.85189V7.94304H11.2966C11.1661 9.07869 10.8071 9.85537 10.2784 10.384C9.6388 11.0302 8.62716 11.7416 6.85189 11.7416Z"
    fill="#3686F7" />
</svg>