<svg width="462" height="426" viewBox="0 0 462 426" fill="none" xmlns="http://www.w3.org/2000/svg">
<path d="M3.8636 422.859H457.315C459.448 422.859 461.178 421.742 461.178 420.364V419.628C461.178 418.25 459.448 417.132 457.315 417.132H3.8636C1.72961 417.132 0 418.25 0 419.628V420.364C0 421.742 1.72961 422.859 3.8636 422.859Z" fill="#07A27B"/>
<path d="M337.976 29.6318H62.0963C50.313 29.6318 40.7604 38.4531 40.7604 49.335V225.681C40.7604 236.563 50.3127 245.385 62.0963 245.385H90.7106L86.8409 298.005L138.248 245.385H337.976C349.759 245.385 359.312 236.563 359.312 225.681V49.335C359.312 38.4531 349.759 29.6318 337.976 29.6318Z" fill="#31333A"/>
<path d="M133.024 153.36H87.0977C84.0598 153.36 81.5966 150.897 81.5966 147.859C81.5966 144.821 84.0595 142.358 87.0977 142.358H133.024C136.062 142.358 138.525 144.821 138.525 147.859V147.86C138.525 150.897 136.062 153.36 133.024 153.36Z" fill="#E6E6E6" fill-opacity="0.2"/>
<path d="M317.152 153.36H165.511C162.473 153.36 160.01 150.897 160.01 147.859C160.01 144.821 162.473 142.358 165.511 142.358H317.152C320.19 142.358 322.653 144.821 322.653 147.859C322.653 150.897 320.19 153.36 317.152 153.36Z" fill="#E6E6E6" fill-opacity="0.2"/>
<path d="M200.625 182.392H87.0977C84.0598 182.392 81.5966 179.929 81.5966 176.891V176.89C81.5966 173.853 84.0595 171.39 87.0977 171.39H200.625C203.664 171.39 206.126 173.853 206.126 176.891C206.126 179.929 203.664 182.392 200.625 182.392Z" fill="#E6E6E6" fill-opacity="0.2"/>
<path d="M317.152 124.328H87.0977C84.0598 124.328 81.5968 121.865 81.5968 118.827C81.5968 115.789 84.0598 113.326 87.0979 113.326H317.152C320.19 113.326 322.653 115.789 322.653 118.827C322.653 121.865 320.19 124.328 317.152 124.328Z" fill="#E6E6E6" fill-opacity="0.2"/>
<path d="M317.152 182.392H229.843C226.805 182.392 224.341 179.929 224.341 176.891C224.341 173.853 226.804 171.39 229.843 171.39H317.152C320.19 171.39 322.653 173.853 322.653 176.89V176.891C322.653 179.929 320.19 182.392 317.152 182.392Z" fill="#E6E6E6" fill-opacity="0.2"/>
<path d="M317.152 211.423H87.0977C84.0598 211.423 81.5966 208.96 81.5966 205.922C81.5966 202.884 84.0595 200.421 87.0977 200.421H317.152C320.19 200.421 322.653 202.884 322.653 205.921C322.653 208.96 320.19 211.423 317.152 211.423Z" fill="#E6E6E6" fill-opacity="0.2"/>
<path d="M301.95 52.8809L308.348 65.8435L322.653 67.9222L312.301 78.0123L314.745 92.2599L301.95 85.533L289.155 92.2599L291.599 78.0123L281.247 67.9222L295.552 65.8435L301.95 52.8809Z" fill="#55575C"/>
<path d="M102.3 52.8809L108.697 65.8435L123.002 67.9222L112.651 78.0123L115.095 92.2599L102.3 85.533L89.5044 92.2599L91.9481 78.0123L81.5966 67.9222L95.9021 65.8435L102.3 52.8809Z" fill="#FFD800"/>
<path d="M111.012 72.5254C102.555 72.5254 95.1392 77.0255 90.9575 83.7882L89.5046 92.2598L102.3 85.533L115.095 92.2598L112.651 78.0123L117.373 73.4091C115.349 72.8376 113.217 72.5254 111.012 72.5254Z" fill="#ECB22E"/>
<path d="M152.212 52.8809L158.609 65.8435L172.915 67.9222L162.563 78.0123L165.007 92.2599L152.212 85.533L139.417 92.2599L141.861 78.0123L131.509 67.9222L145.815 65.8435L152.212 52.8809Z" fill="#FFD800"/>
<path d="M160.925 72.5254C152.468 72.5254 145.052 77.0255 140.87 83.7882L139.417 92.2598L152.212 85.533L165.007 92.2598L162.563 78.0123L167.285 73.4091C165.261 72.8376 163.13 72.5254 160.925 72.5254Z" fill="#ECB22E"/>
<path d="M202.125 52.8809L208.522 65.8435L222.827 67.9222L212.476 78.0123L214.92 92.2599L202.125 85.533L189.33 92.2599L191.773 78.0123L181.422 67.9222L195.727 65.8435L202.125 52.8809Z" fill="#FFD800"/>
<path d="M210.838 72.5254C202.381 72.5254 194.964 77.0255 190.783 83.7882L189.33 92.2598L202.125 85.533L214.92 92.2598L212.476 78.0123L217.198 73.4091C215.174 72.8376 213.042 72.5254 210.838 72.5254Z" fill="#ECB22E"/>
<path d="M252.038 52.8809L258.435 65.8435L272.74 67.9222L262.389 78.0123L264.832 92.2599L252.038 85.533L239.242 92.2599L241.686 78.0123L231.335 67.9222L245.64 65.8435L252.038 52.8809Z" fill="#55575C"/>
<path d="M415.256 401.029C415.256 401.029 417.468 403.219 417.518 404.021C417.568 404.824 417.714 413.429 416.811 414.232C415.908 415.036 413.254 415.605 414.107 416.509C414.752 417.192 419.713 417.046 423 416.862C423.959 416.808 425.164 409.047 425.543 407.907C426.095 406.25 428.084 402.644 427.582 401.49C427.338 400.927 425.522 399.645 423.873 398.565C422.138 397.43 420.48 394.903 420.48 394.903L415.256 401.029Z" fill="#F9C38A"/>
<path d="M385.652 406.405C385.652 406.405 387.633 412.076 387.635 412.09C387.782 412.988 388.362 415.208 388.362 416.025C388.362 419.093 374.712 413.421 377.771 412.061C378.048 411.938 378.916 410.954 379.008 409.91C379.148 408.301 377.858 406.284 377.858 406.284L385.652 406.405Z" fill="#F9C38A"/>
<path d="M362.861 299.186C362.861 299.186 361.834 308.568 361.834 308.72C361.834 325.164 359.913 357.284 360.526 360.376C362.017 367.916 378.311 408.958 378.311 408.958L386.754 407.752L375.444 359.276L379.606 340.739L385.495 304.096L362.861 299.186Z" fill="#07A27B"/>
<path d="M394.683 307.394L396.33 317.029L400.785 356.681L422.593 396.92C422.593 396.92 419.314 401.955 415.793 402.746L384.839 362.078L368.064 311.165L368.653 299.854L394.683 307.394Z" fill="#07A27B"/>
<path d="M359.681 196.985C359.417 197.504 358.336 198.889 358.336 198.889C358.336 198.889 360.8 225.271 360.997 226.921L368.495 238.272L360.094 244.438C360.094 244.438 351.534 230.731 351.456 230.063C351.377 229.395 351.731 209.64 351.731 209.64C351.731 209.64 352.359 199.39 352.359 198.879C352.359 198.368 350.851 195.064 350.553 193.734C350.277 192.505 350.2 188.707 350.2 188.707L350.828 187.803L353.743 187.166L355.804 187.401C355.804 187.401 360.565 189.326 360.751 189.934C360.835 190.211 360.592 193.871 360.309 195.148C360.204 195.621 359.902 196.553 359.681 196.985Z" fill="#F9C38A"/>
<path d="M366.556 145.346L365.376 165.002L380.9 177.118L361.841 182.07L355.115 200.577L344.516 183.981L324.836 183.304L337.344 168.095L331.907 149.17L350.237 156.366L366.556 145.346Z" fill="#FFD800"/>
<path d="M363.606 174.472C353.599 168.763 341.786 169.082 332.274 174.261L324.836 183.304L344.516 183.982L355.115 200.577L361.841 182.07L370.536 179.811C368.526 177.768 366.215 175.96 363.606 174.472Z" fill="#ECB22E"/>
<path d="M358.778 192.114C358.745 191.538 358.837 190.331 358.837 190.331C358.837 190.331 357.617 187.943 357.894 187.784C358.866 187.224 360.77 189.914 360.77 189.914C360.77 189.914 358.888 193.981 358.778 192.114Z" fill="#F9C38A"/>
<path d="M350.618 193.679C350.618 193.679 349.298 188.727 349.866 187.332C350.231 186.436 355.127 184.504 355.756 185.368C356.329 186.156 351.628 187.791 351.77 187.98C352.005 188.294 355.324 186.036 355.932 186.468C356.615 186.952 352.73 189.315 352.909 189.688C353.022 189.925 355.194 187.665 355.421 188.667C355.649 189.669 350.618 193.679 350.618 193.679Z" fill="#ECB22E"/>
<path d="M362.718 293.468L364.431 270.024C364.981 264.236 365.195 259.615 364.726 257.947C363.728 254.398 356.442 242.473 356.442 242.473C356.442 242.473 363.43 234.697 368.377 234.697C368.377 234.697 373.865 245.268 380.386 246.201C386.907 247.132 385.504 247.173 388.159 247.453C391.269 247.78 394.219 248.276 396.612 249.274C401.592 251.349 397.842 269.996 397.274 273.029C396.414 277.614 398.023 316.236 398.023 316.236C398.023 316.236 383.733 319.453 361.82 308.726L362.718 293.468Z" fill="#00CC99"/>
<path d="M386.825 237.203L388.373 247.649C388.373 247.649 382.643 259.819 379.206 258.753C376.322 257.859 378.132 246.718 378.132 246.718C378.132 246.718 379.669 241.141 379.197 238.218C378.726 235.295 386.825 237.203 386.825 237.203Z" fill="#F9C38A"/>
<path d="M385.714 240.361C384.236 241.106 381.314 242.122 379.04 242.368C379.257 240.906 379.381 239.36 379.197 238.218C378.98 236.869 380.588 236.55 382.383 236.597C384.731 236.811 386.825 237.203 386.825 237.203L387.123 239.21C386.676 239.713 386.207 240.113 385.714 240.361Z" fill="#E5AC7A"/>
<path d="M394.268 225.153C394.511 225.154 391.937 236.824 387.953 238.831C383.968 240.838 378.026 239.792 376.911 236.649C375.678 233.172 380.177 221.267 385.781 219.755C391.384 218.243 394.268 225.153 394.268 225.153Z" fill="#F9C38A"/>
<path d="M424.99 263.856L421.349 285.835L437.39 301.293L415.362 304.622L405.616 324.655L395.644 304.734L373.58 301.656L389.444 286.015L385.553 264.08L405.331 274.335L424.99 263.856Z" fill="#FFD800"/>
<path d="M418.242 296.28C407.655 288.679 394.326 287.648 383.013 292.356L373.58 301.656L395.644 304.734L405.616 324.654L415.362 304.622L425.411 303.103C423.39 300.568 421.002 298.262 418.242 296.28Z" fill="#ECB22E"/>
<path d="M410.466 268.551C410.466 268.551 415.569 275.464 415.884 276.681C416.198 277.899 413.96 306.608 413.842 309.142C413.842 309.142 414.784 312.205 415.314 314.149C415.844 316.094 416.08 317.537 415.815 317.919C415.55 318.302 414.725 318.037 414.401 318.774C414.077 319.51 413.135 319.392 412.841 319.54C412.546 319.687 411.677 320.777 411.353 320.747C411.029 320.718 410.5 320.658 410.22 320.836C409.94 321.012 409.469 321.498 408.806 321.38C408.144 321.262 407.816 320.885 407.816 320.885C407.816 320.885 408.335 315.607 407.952 315.622C407.57 315.636 406.598 316.079 406.465 316.402C406.333 316.726 406.392 317.448 406.259 317.772C406.126 318.096 405.685 318.406 405.288 318.273C404.89 318.14 404.949 316.329 404.949 316.329C404.949 316.329 405.008 314.856 405.538 313.987C407.374 310.977 407.774 311.398 408.011 311.012C408.129 310.82 407.981 303.383 407.981 303.383C407.981 303.383 407.246 282.258 407.167 281.119L401.788 273.146L410.466 268.551Z" fill="#F9C38A"/>
<path d="M412.586 268.63L401.828 276.721C401.828 276.721 395.952 267.858 392.798 264.702C388.847 260.75 394.4 248.198 396.783 249.326C402.644 252.103 412.586 268.63 412.586 268.63Z" fill="#00CC99"/>
<path d="M389.658 214.431C392.84 216.39 394.3 219.295 394.792 220.485C396.285 221.242 398.093 222.878 398.961 227.287C400.028 232.708 396.235 236.886 392.214 238.143C388.193 239.4 387.514 242.24 387.514 242.24L387.116 239.184C387.116 239.184 388.01 236.523 389.355 235.191C390.7 233.86 388.719 231.919 388.544 230.336C388.41 229.117 389.251 226.751 389.069 224.75L388.581 223.096C388.581 223.096 386.987 220.558 384.632 220.244C382.276 219.929 385.574 211.918 389.658 214.431Z" fill="#353535"/>
<path d="M387.964 232.367C387.443 233.716 387.656 235.053 388.439 235.356C389.223 235.659 390.28 234.812 390.801 233.464C391.321 232.117 391.109 230.778 390.325 230.475C389.542 230.173 388.485 231.02 387.964 232.367Z" fill="#F9C38A"/>
<path d="M423.765 398.512C423.765 398.512 418.665 413.067 416.668 413.77C416.138 413.956 413.595 414.43 413.116 415.569C412.97 415.913 413.116 417.06 413.116 417.06H423.745C423.745 417.06 425.089 410.647 425.621 407.83C425.621 407.83 428.435 400.945 428.123 400.319C427.81 399.693 423.765 398.512 423.765 398.512Z" fill="#353535"/>
<path d="M389.138 417.037L387.575 412.032C387.575 412.032 384.292 413.44 382.651 413.205C381.009 412.97 377.805 412.032 377.805 412.032C371.252 414.218 365.885 415.279 366.861 417.037H389.138Z" fill="#353535"/>
</svg>
