<svg viewBox="0 0 80 20" fill="none" xmlns="http://www.w3.org/2000/svg">
  <g clip-path="url(#clip0_419_6970)">
    <path
      d="M20.6658 6.8819H28.6683V8.37166H25.5174V16.7697H23.7903V8.37166H20.6526L20.6658 6.8819ZM28.3255 9.61092H29.8021V10.9952H29.8285C29.8812 10.7975 29.9735 10.6129 30.1053 10.4283C30.2372 10.2437 30.3954 10.0724 30.5931 9.92733C30.7777 9.76913 30.9886 9.65048 31.2259 9.55819C31.4501 9.4659 31.6874 9.41317 31.9247 9.41317C32.1092 9.41317 32.2411 9.42635 32.307 9.42635C32.3729 9.43954 32.452 9.45272 32.5179 9.45272V10.9688C32.4125 10.9425 32.2938 10.9293 32.1752 10.9161C32.0565 10.9029 31.951 10.8897 31.8324 10.8897C31.5687 10.8897 31.3182 10.9425 31.0809 11.0479C30.8436 11.1534 30.6458 11.3116 30.4613 11.5094C30.2899 11.7203 30.1449 11.9708 30.0394 12.274C29.9339 12.5773 29.8812 12.9332 29.8812 13.3287V16.7301H28.2991L28.3255 9.61092ZM39.769 16.7697H38.2133V15.7677H38.1869C37.9892 16.1369 37.6991 16.4137 37.3168 16.6378C36.9345 16.862 36.539 16.9674 36.1435 16.9674C35.2074 16.9674 34.5219 16.7433 34.1 16.2687C33.6781 15.8073 33.4672 15.0954 33.4672 14.1593V9.61092H35.0492V14.0011C35.0492 14.6339 35.1679 15.0822 35.4184 15.3327C35.6557 15.5963 35.9984 15.7282 36.4335 15.7282C36.7631 15.7282 37.0399 15.6754 37.2641 15.57C37.4882 15.4645 37.6728 15.3327 37.8046 15.1613C37.9496 14.9899 38.0419 14.7789 38.1078 14.5416C38.1737 14.3043 38.2001 14.0407 38.2001 13.7638V9.61092H39.7822V16.7697H39.769ZM42.4585 14.4757C42.5112 14.9371 42.6826 15.2536 42.9858 15.4513C43.289 15.6359 43.6582 15.7282 44.0801 15.7282C44.2251 15.7282 44.3965 15.715 44.581 15.6886C44.7656 15.6623 44.9502 15.6227 45.1084 15.5568C45.2798 15.4909 45.4116 15.3986 45.5171 15.2667C45.6225 15.1349 45.6753 14.9767 45.6621 14.7789C45.6489 14.5812 45.583 14.4098 45.438 14.278C45.293 14.1461 45.1216 14.0538 44.9106 13.9616C44.6997 13.8824 44.4492 13.8165 44.1723 13.7638C43.8955 13.7111 43.6186 13.6451 43.3286 13.5792C43.0385 13.5133 42.7485 13.4342 42.4716 13.3419C42.1948 13.2496 41.9575 13.131 41.7334 12.9596C41.5224 12.8014 41.3378 12.6036 41.2192 12.3531C41.0874 12.1026 41.0214 11.8126 41.0214 11.4435C41.0214 11.0479 41.1137 10.7315 41.3115 10.4679C41.496 10.2042 41.7465 9.99325 42.0366 9.83505C42.3266 9.67684 42.6562 9.55819 43.0122 9.49227C43.3681 9.42635 43.7109 9.39998 44.0273 9.39998C44.3965 9.39998 44.7524 9.43954 45.082 9.51864C45.4116 9.59774 45.728 9.7164 45.9917 9.90097C46.2685 10.0724 46.4927 10.3097 46.6641 10.5865C46.8486 10.8634 46.9541 11.2062 47.0068 11.6017H45.3589C45.2798 11.2193 45.1084 10.9688 44.8447 10.837C44.5679 10.7052 44.2646 10.6393 43.9087 10.6393C43.8032 10.6393 43.6582 10.6524 43.5132 10.6656C43.3549 10.692 43.2231 10.7184 43.0781 10.7711C42.9463 10.8238 42.8276 10.9029 42.7353 10.9952C42.643 11.0875 42.5903 11.2193 42.5903 11.3775C42.5903 11.5753 42.6562 11.7203 42.788 11.839C42.9199 11.9576 43.0913 12.0499 43.3154 12.1422C43.5263 12.2213 43.7768 12.2872 44.0537 12.34C44.3305 12.3927 44.6206 12.4586 44.9106 12.5245C45.2007 12.5904 45.4775 12.6695 45.7544 12.7618C46.0312 12.8541 46.2817 12.9728 46.4927 13.1442C46.7036 13.3024 46.8882 13.5001 47.02 13.7374C47.1519 13.9747 47.2178 14.278 47.2178 14.6207C47.2178 15.0426 47.1255 15.3986 46.9277 15.7018C46.73 15.9918 46.4795 16.2423 46.1763 16.4269C45.873 16.6115 45.5171 16.7433 45.1479 16.8356C44.7656 16.9147 44.3965 16.9674 44.0273 16.9674C43.5791 16.9674 43.1572 16.9147 42.7749 16.8092C42.3925 16.7038 42.0498 16.5456 41.7729 16.3478C41.496 16.1369 41.2719 15.8864 41.1137 15.57C40.9555 15.2667 40.8632 14.8976 40.85 14.4625H42.4453V14.4757H42.4585ZM47.666 9.61092H48.8657V7.4488H50.4478V9.59774H51.8716V10.7711H50.4478V14.5944C50.4478 14.7658 50.461 14.8976 50.4742 15.0294C50.4873 15.1481 50.5269 15.2536 50.5664 15.3327C50.6192 15.4118 50.6983 15.4777 50.7906 15.5172C50.896 15.5568 51.0279 15.5832 51.2124 15.5832C51.3179 15.5832 51.4366 15.5832 51.542 15.57C51.6475 15.5568 51.7662 15.5436 51.8716 15.5172V16.7433C51.7002 16.7697 51.5289 16.7829 51.3575 16.7961C51.1861 16.8224 51.0279 16.8224 50.8433 16.8224C50.4214 16.8224 50.0918 16.7829 49.8413 16.7038C49.5908 16.6247 49.3931 16.506 49.2481 16.361C49.1031 16.2028 49.0108 16.0182 48.958 15.7941C48.9053 15.57 48.8789 15.2931 48.8657 15.0031V10.7843H47.666V9.58456V9.61092ZM52.9791 9.61092H54.4688V10.5865H54.4952C54.7193 10.1646 55.0225 9.8746 55.418 9.69003C55.8136 9.50546 56.2354 9.41317 56.7101 9.41317C57.277 9.41317 57.7648 9.50546 58.1866 9.7164C58.6085 9.91415 58.9513 10.1778 59.2281 10.5338C59.505 10.8766 59.7159 11.2853 59.8478 11.7467C59.9796 12.2081 60.0587 12.7091 60.0587 13.2233C60.0587 13.7111 59.9928 14.1725 59.8741 14.6207C59.7423 15.069 59.5577 15.4777 59.3072 15.8205C59.0568 16.1632 58.7403 16.4401 58.3448 16.651C57.9493 16.862 57.5011 16.9674 56.9737 16.9674C56.7496 16.9674 56.5123 16.9411 56.2882 16.9015C56.0641 16.862 55.8399 16.7961 55.629 16.7038C55.418 16.6115 55.2203 16.4928 55.0489 16.3478C54.8643 16.2028 54.7193 16.0314 54.6007 15.8468H54.5743V19.4196H52.9922V9.61092H52.9791ZM58.503 13.1969C58.503 12.8805 58.4635 12.5641 58.3712 12.2609C58.2921 11.9576 58.1603 11.694 57.9889 11.4566C57.8175 11.2193 57.6065 11.0348 57.3692 10.8897C57.1188 10.7447 56.8287 10.6788 56.5123 10.6788C55.8531 10.6788 55.3521 10.9029 55.0094 11.3644C54.6798 11.8258 54.5084 12.4454 54.5084 13.2101C54.5084 13.5792 54.5479 13.9088 54.6402 14.212C54.7325 14.5153 54.8512 14.7789 55.0357 15.0031C55.2071 15.2272 55.4181 15.3986 55.6685 15.5304C55.919 15.6623 56.1959 15.7282 56.5255 15.7282C56.8946 15.7282 57.1847 15.6491 57.4352 15.504C57.6856 15.359 57.8834 15.1613 58.0548 14.9371C58.213 14.6998 58.3316 14.4362 58.3976 14.1329C58.4635 13.8165 58.503 13.5133 58.503 13.1969ZM61.2848 6.8819H62.8668V8.37166H61.2848V6.8819ZM61.2848 9.61092H62.8668V16.7697H61.2848V9.61092ZM64.2775 6.8819H65.8596V16.7697H64.2775V6.8819ZM70.6848 16.9674C70.1179 16.9674 69.6037 16.8752 69.1555 16.6774C68.7072 16.4796 68.3381 16.2292 68.0217 15.8996C67.7185 15.57 67.4811 15.1613 67.3229 14.6998C67.1647 14.2384 67.0725 13.7242 67.0725 13.1837C67.0725 12.6432 67.1516 12.1422 67.3229 11.6808C67.4811 11.2193 67.7185 10.8238 68.0217 10.4811C68.3249 10.1515 68.7072 9.88778 69.1555 9.70321C69.6037 9.51864 70.1179 9.41317 70.6848 9.41317C71.2517 9.41317 71.7659 9.50546 72.2141 9.70321C72.6624 9.88778 73.0315 10.1515 73.3479 10.4811C73.6511 10.8106 73.8884 11.2193 74.0466 11.6808C74.2048 12.1422 74.2971 12.6432 74.2971 13.1837C74.2971 13.7374 74.218 14.2384 74.0466 14.6998C73.8753 15.1613 73.6511 15.5568 73.3479 15.8996C73.0447 16.2292 72.6624 16.4928 72.2141 16.6774C71.7659 16.862 71.2649 16.9674 70.6848 16.9674ZM70.6848 15.715C71.0276 15.715 71.344 15.6359 71.5945 15.4909C71.8581 15.3458 72.0559 15.1481 72.2273 14.9108C72.3987 14.6735 72.5173 14.3966 72.5964 14.1066C72.6755 13.8033 72.7151 13.5001 72.7151 13.1837C72.7151 12.8805 72.6755 12.5773 72.5964 12.274C72.5173 11.9708 72.3987 11.7071 72.2273 11.4698C72.0559 11.2325 71.845 11.048 71.5945 10.9029C71.3308 10.7579 71.0276 10.6788 70.6848 10.6788C70.342 10.6788 70.0256 10.7579 69.7751 10.9029C69.5114 11.048 69.3137 11.2457 69.1423 11.4698C68.9709 11.7071 68.8523 11.9708 68.7732 12.274C68.694 12.5773 68.6545 12.8805 68.6545 13.1837C68.6545 13.5001 68.694 13.8033 68.7732 14.1066C68.8523 14.4098 68.9709 14.6735 69.1423 14.9108C69.3137 15.1481 69.5246 15.3458 69.7751 15.4909C70.0388 15.6491 70.342 15.715 70.6848 15.715ZM74.7717 9.61092H75.9715V7.4488H77.5535V9.59774H78.9774V10.7711H77.5535V14.5944C77.5535 14.7658 77.5667 14.8976 77.5799 15.0294C77.5931 15.1481 77.6326 15.2536 77.6722 15.3327C77.7249 15.4118 77.804 15.4777 77.8963 15.5172C78.0018 15.5568 78.1336 15.5832 78.3182 15.5832C78.4236 15.5832 78.5423 15.5832 78.6478 15.57C78.7532 15.5568 78.8719 15.5436 78.9774 15.5172V16.7433C78.806 16.7697 78.6346 16.7829 78.4632 16.7961C78.2918 16.8224 78.1336 16.8224 77.949 16.8224C77.5271 16.8224 77.1975 16.7829 76.9471 16.7038C76.6966 16.6247 76.4988 16.506 76.3538 16.361C76.2088 16.2028 76.1165 16.0182 76.0638 15.7941C76.011 15.57 75.9846 15.2931 75.9715 15.0031V10.7843H74.7717V9.58456V9.61092Z"
      fill="white" fill-opacity="0.9" />
    <path
      d="M18.82 6.8819H11.5821L9.35409 0L7.11286 6.8819L-0.125 6.86872L5.72857 11.1271L3.48734 18.009L9.34091 13.7506L15.1945 18.009L12.9664 11.1271L18.82 6.8819Z"
      fill="#23F4BD" />
    <path d="M13.4673 12.6828L12.9663 11.1271L9.354 13.7506L13.4673 12.6828Z" fill="#005128" />
  </g>
  <defs>
    <clipPath id="clip0_419_6970">
      <rect width="79.1023" height="19.4196" fill="white" />
    </clipPath>
  </defs>
</svg>