<svg xmlns="http://www.w3.org/2000/svg" width="15" height="15" viewBox="0 0 15 15" fill="none">
  <path fill-rule="evenodd" clip-rule="evenodd"
    d="M12.4478 2.0984C11.2004 0.865188 9.54854 0.12487 7.79788 0.0144041C6.04722 -0.0960621 4.31594 0.431721 2.9238 1.49892C1.53167 2.56611 0.573003 4.10101 0.224163 5.82066C-0.124032 7.53967 0.161501 9.32716 1.02908 10.8524L0 14.6114L3.84629 13.603C4.90961 14.1832 6.10213 14.4868 7.31338 14.4868C8.7475 14.4842 10.1487 14.0572 11.3399 13.2594C12.5318 12.4616 13.4601 11.3291 14.0092 10.0042C14.5583 8.67922 14.7023 7.22184 14.4239 5.81485C14.1455 4.40786 13.4569 3.11521 12.4452 2.0997H12.4478V2.0984ZM7.31532 13.2607C6.23521 13.2607 5.17576 12.9706 4.24617 12.4202L4.02588 12.2858L1.73968 12.884L2.35015 10.6637L2.20739 10.4363C1.49679 9.3039 1.18218 7.96797 1.31397 6.63721C1.44575 5.30709 2.01552 4.05773 2.93414 3.08679C3.85275 2.1152 5.06788 1.47695 6.38895 1.27152C7.71002 1.06609 9.06146 1.30576 10.232 1.95241C11.4019 2.59906 12.3244 3.61586 12.8535 4.84391C13.3826 6.07131 13.4885 7.44019 13.1552 8.73478C12.8218 10.0294 12.0673 11.1767 11.0111 11.9958C9.95488 12.8149 8.65577 13.26 7.3192 13.2607H7.31532ZM10.617 8.74446C10.4368 8.65273 9.54144 8.21474 9.37865 8.15402C9.21585 8.0933 9.09247 8.06423 8.97489 8.24575C8.85797 8.42728 8.50719 8.83491 8.4006 8.95571C8.29466 9.07651 8.18936 9.09008 8.00783 9.00157C7.47423 8.79033 6.98198 8.488 6.5511 8.1088C6.1551 7.74187 5.8153 7.31874 5.54269 6.85297C5.43804 6.67145 5.53171 6.57326 5.62215 6.48346C5.71194 6.39367 5.80368 6.27222 5.89089 6.16627C5.96518 6.07454 6.0259 5.97247 6.07112 5.86395C6.09567 5.8142 6.10665 5.75865 6.10407 5.70309C6.10148 5.64753 6.08533 5.59392 6.05626 5.54611C6.01169 5.45438 5.65251 4.5629 5.49812 4.20114C5.34372 3.83938 5.20096 3.89558 5.09437 3.89041C4.98842 3.88524 4.86827 3.89041 4.74746 3.89041C4.65573 3.893 4.56529 3.91431 4.4826 3.95372C4.39927 3.99313 4.32563 4.04868 4.2649 4.1178C4.06077 4.30967 3.89797 4.54158 3.78751 4.79934C3.67704 5.05709 3.62148 5.33487 3.62342 5.61459C3.62342 6.50736 4.27265 7.36267 4.36309 7.48928C4.45289 7.6159 5.64218 9.44215 7.45615 10.2277C7.79336 10.3737 8.13832 10.5009 8.4891 10.6095C8.85926 10.7219 9.25009 10.7458 9.63059 10.6805C9.97878 10.6282 10.7062 10.2419 10.8541 9.81877C11.002 9.39499 11.0046 9.03194 10.9601 8.957C10.9168 8.88013 10.8044 8.83491 10.617 8.74446Z"
    fill="#25D366" />
</svg>