<?xml version="1.0" encoding="UTF-8"?>
<svg id="Calque_2" data-name="Calque 2" xmlns="http://www.w3.org/2000/svg" viewBox="0 0 822.56 262.92">
  <defs>
    <style>
      .cls-1 {
        fill: #23f4bd;
      }

      .cls-1, .cls-2 {
        stroke-width: 0px;
      }

      .cls-2 {
        fill: #040e23;
      }
    </style>
  </defs>
  <g id="Calque_1-2" data-name="Calque 1">
    <rect class="cls-2" x="141.06" y="62.99" width="35.28" height="139.62"/>
    <path class="cls-2" d="m269.34,170.1l35.28-107.11h37.55l-51.66,139.62h-42.84l-51.41-139.62h37.8l35.28,107.11Z"/>
    <path class="cls-2" d="m486.95,143.38h-102.07c.84,10.08,4.37,17.98,10.58,23.69,6.21,5.71,13.86,8.57,22.93,8.57,13.11,0,22.43-5.62,27.97-16.89h38.06c-4.03,13.45-11.76,24.49-23.19,33.14-11.43,8.65-25.45,12.98-42.09,12.98-13.44,0-25.5-2.98-36.17-8.95-10.67-5.96-18.99-14.41-24.95-25.33-5.97-10.92-8.95-23.52-8.95-37.8s2.94-27.13,8.82-38.06c5.88-10.92,14.11-19.32,24.7-25.2,10.59-5.88,22.76-8.82,36.54-8.82s25.16,2.86,35.66,8.57c10.5,5.71,18.65,13.82,24.45,24.32,5.8,10.5,8.69,22.56,8.69,36.17,0,5.04-.34,9.58-1.01,13.61Zm-35.54-23.69c-.17-9.07-3.45-16.34-9.83-21.8-6.39-5.46-14.2-8.19-23.44-8.19-8.74,0-16.09,2.65-22.05,7.94-5.97,5.29-9.62,12.64-10.96,22.05h66.28Z"/>
    <path class="cls-1" d="m731.45,67.14c7.98-4.28,17.09-6.43,27.34-6.43,11.93,0,22.72,2.94,32.39,8.82,9.66,5.88,17.3,14.24,22.93,25.07,5.63,10.84,8.44,23.4,8.44,37.68s-2.82,26.93-8.44,37.93c-5.63,11.01-13.27,19.53-22.93,25.58-9.66,6.05-20.46,9.07-32.39,9.07-10.25,0-19.28-2.1-27.09-6.3-7.81-4.2-14.16-9.49-19.03-15.88v80.23h-35.28V62.99h35.28v20.16c4.54-6.38,10.79-11.72,18.78-16Zm49.9,43.35c-3.45-6.13-7.98-10.79-13.61-13.99-5.63-3.19-11.72-4.79-18.27-4.79s-12.39,1.64-18.02,4.91c-5.63,3.27-10.17,8.02-13.61,14.24-3.45,6.22-5.17,13.53-5.17,21.93s1.72,15.71,5.17,21.93c3.44,6.22,7.98,10.96,13.61,14.24,5.63,3.27,11.63,4.91,18.02,4.91s12.64-1.68,18.27-5.04c5.63-3.36,10.16-8.15,13.61-14.37,3.44-6.21,5.17-13.61,5.17-22.18s-1.73-15.67-5.17-21.8Z"/>
    <path class="cls-1" d="m513.46,65.32h36.61v78.29c0,16.57,13.36,29.93,29.93,29.93s29.93-13.36,29.93-29.93v-78.29h36.61v78.29c0,33.67-24.58,61.19-66.53,61.19s-66.53-27.52-66.53-61.19v-78.29Z"/>
    <path class="cls-1" d="m579.19,256.58c-27.04,0-53.46-7.7-76.41-22.26l15.8-26.72c18.19,11.54,39.15,17.65,60.6,17.65s42.88-6.24,61.21-18.03l15.96,26.62c-23.13,14.88-49.82,22.75-77.17,22.75Z"/>
    <g>
      <path class="cls-2" d="m63.92,54.64c0-8.46,1.58-14.56,4.56-17.65h0c3.66-3.79,10.94-4.58,16.41-4.58h30.27V0h-32.04c-17.26,0-30.58,4.62-39.59,13.74-8.98,9.09-13.54,22.59-13.54,40.15v9.05H0v32.67h29.99v107h34.18v-107h48.14v-32.67h-48.39v-8.3Z"/>
      <rect class="cls-2" x="141.06" width="35.28" height="32.42"/>
    </g>
  </g>
</svg>